<svg xmlns="http://www.w3.org/2000/svg" xmlns:xlink="http://www.w3.org/1999/xlink" xml:space="preserve" version="1.1" style="shape-rendering:geometricPrecision; text-rendering:geometricPrecision; image-rendering:optimizeQuality; fill-rule:evenodd; clip-rule:evenodd" viewBox="854 1228 842 844">
 <defs>
  <style type="text/css">
   <![CDATA[
    .str0 {stroke:#D3D7CF;stroke-width:6.24921;stroke-linecap:round;stroke-linejoin:round}
    .fil0 {fill:none}
    .fil2 {fill:black}
    .fil1 {fill:#FCCD4A}
    .fil3 {fill:black;fill-opacity:0.901961}
   ]]>
  </style>
 </defs>
 <g id="Layer_x0020_1">
  <metadata id="CorelCorpID_0Corel-Layer"/>
  <g id="_1840165375616">
   <path class="fil0 str0" d="M1534 1647c0,144 -116,261 -260,261 -144,0 -260,-117 -260,-261 0,-144 116,-260 260,-260 144,0 260,116 260,260z"/>
   <path class="fil1" d="M1273 1338c-5,92 -11,184 -16,276 -46,-40 -91,-80 -137,-120 40,46 80,91 120,136 -92,5 -184,11 -275,17 91,6 183,12 275,18 -40,45 -80,90 -120,135 46,-40 91,-80 137,-119 5,92 11,184 16,276 6,-92 12,-184 18,-276 45,40 90,80 136,120 -40,-46 -80,-91 -120,-136 92,-6 184,-12 276,-18 -92,-6 -184,-12 -276,-17 40,-46 80,-91 120,-136 -46,40 -91,80 -136,120 -6,-92 -12,-184 -18,-276l0 0z"/>
   <g>
    <g>
     <path class="fil2" d="M1609 1632c-3,0 -5,1 -5,2 -1,2 -1,6 -1,14l0 4c0,10 1,18 3,22 3,5 8,9 16,13l0 4 -25 -7 0 -81 3 0c0,6 1,10 3,11 2,2 5,2 11,2l66 0c5,0 9,0 10,-2 2,-1 3,-5 3,-11l3 0 0 80 -21 0 0 -3c7,-2 11,-4 13,-6 2,-3 3,-9 3,-17l0 -20c0,-2 -1,-4 -1,-4 -1,-1 -2,-1 -4,-1l-34 0 0 23c0,6 1,10 3,12 2,2 6,3 12,4l0 4 -35 0 0 -4c6,-1 10,-2 12,-4 1,-2 2,-6 2,-12l0 -23 -37 0z"/>
    </g>
    <g>
     <path class="fil2" d="M854 1578l3 0c0,4 1,7 3,8 1,2 3,3 7,4 22,9 38,14 46,17 8,3 22,8 41,14l0 2 -63 24 63 23 0 2 -80 29c-7,3 -11,5 -14,7 -2,2 -3,5 -3,9l-3 0 0 -37 3 0c0,4 0,6 1,8 0,1 2,2 3,2 2,0 4,-1 7,-2l57 -21 -43 -16 -12 4c-6,3 -10,5 -11,7 -2,1 -2,4 -2,9l-3 0 0 -40 3 0c0,7 1,11 5,11 1,0 5,-1 12,-4l51 -20 -51 -18c-4,-2 -8,-3 -11,-3 -2,0 -3,1 -4,3 -1,1 -2,4 -2,8l-3 0 0 -30z"/>
    </g>
   </g>
   <g>
    <path class="fil3" d="M1319 1230c-2,1 -4,1 -6,2 -1,0 -3,1 -4,2 -1,1 -2,3 -3,5 -1,3 -1,6 -1,11l0 78 -2 0 -67 -82 0 59c0,7 1,12 3,15 2,2 6,4 12,4l0 3 -36 0 0 -3c7,0 11,-2 12,-4 2,-3 3,-8 3,-15l0 -66c-3,-4 -5,-6 -7,-7 -2,-1 -4,-2 -8,-2l0 -2 26 0 58 72 0 -50c0,-8 -1,-13 -3,-15 -2,-3 -6,-4 -12,-5l0 -2 35 0 0 2z"/>
   </g>
   <g>
    <path class="fil2" d="M1249 1991c0,5 2,9 5,13 3,3 7,7 12,9 5,3 9,5 14,8 5,3 8,7 12,11 3,4 5,9 5,15 0,7 -3,14 -8,18 -5,5 -11,7 -18,7 -4,0 -9,0 -14,-2 -5,-2 -8,-3 -9,-3 -2,0 -4,2 -4,5l-4 0 -3 -32 4 0c2,9 6,16 11,20 5,4 10,6 16,6 5,0 9,-1 11,-4 3,-2 5,-6 5,-10 0,-4 -2,-7 -5,-11 -4,-4 -9,-8 -17,-12 -10,-5 -17,-11 -22,-16 -4,-5 -6,-11 -6,-17 0,-7 3,-14 9,-19 6,-5 13,-8 21,-8 5,0 10,1 16,3 5,1 8,2 9,2 1,0 2,0 3,-1 1,-1 1,-2 1,-4l4 0 4 32 -3 0c-4,-9 -8,-16 -13,-20 -5,-4 -11,-7 -18,-7 -5,0 -10,2 -13,5 -3,3 -5,7 -5,12z"/>
   </g>
   <g>
    <g>
     <g>
      <g>
       <path class="fil2" d="M1513 1417c-1,-1 -2,-2 -2,-2 -1,-1 -2,-1 -3,-1 -1,0 -2,0 -3,1 -1,1 -2,2 -4,3l-28 29 -1 -1 6 -54 -21 21c-3,3 -5,5 -5,7 0,1 1,3 3,5l-1 1 -13 -12 1 -1c3,2 4,3 6,3 1,-1 4,-2 6,-5l24 -24c0,-2 0,-4 0,-5 0,-1 -1,-2 -2,-3l1 -1 9 9 -5 47 18 -18c3,-3 4,-5 4,-6 0,-2 0,-4 -2,-6l1 -1 12 13 -1 1 0 0zm0 0l0 0 0 0z"/>
      </g>
      <path class="fil2" d="M1495 1459c-1,1 -2,2 -1,2 0,1 1,3 4,6l1 1c4,4 7,6 10,7 3,1 6,0 10,-1l2 1 -12 7 -29 -29 1 -1c2,2 4,2 5,2 1,0 3,-1 5,-2l24 -24c2,-2 2,-4 2,-5 1,-1 0,-3 -2,-5l1 -1 28 29 -7 8 -1 -2c2,-3 2,-5 2,-7 0,-1 -2,-4 -5,-7l-7 -7c-1,-1 -2,-1 -2,-1 -1,0 -1,0 -2,1l-12 12 8 8c3,3 5,4 6,4 1,0 3,-1 6,-3l1 1 -13 13 -1 -1c2,-3 3,-5 3,-6 0,-1 -2,-3 -4,-5l-8 -9 -13 14z"/>
     </g>
     <g>
      <g>
       <path class="fil2" d="M1086 1873c-1,2 -2,4 -2,7 -1,2 0,5 0,7 1,3 2,6 3,8 0,3 0,6 0,8 0,3 -2,5 -4,7 -2,3 -5,4 -9,4 -4,0 -7,-1 -9,-4 -2,-1 -3,-3 -4,-5 -1,-3 -2,-4 -2,-5 -1,-1 -2,0 -4,1l-1 -2 10 -12 2 1c-3,4 -4,8 -3,11 0,3 1,6 3,8 2,2 4,3 6,3 2,0 3,-1 5,-2 1,-2 2,-4 2,-6 0,-3 0,-6 -2,-11 -1,-5 -2,-9 -2,-13 1,-3 2,-6 4,-8 3,-3 6,-4 10,-4 4,0 8,2 11,5 2,2 3,4 4,6 2,3 2,4 3,5 0,0 1,0 1,0 1,0 2,0 2,-1l1 1 -9 14 -2 -2c2,-4 3,-8 3,-12 0,-3 -2,-6 -4,-8 -2,-2 -4,-3 -7,-3 -2,0 -4,1 -6,2l0 0zm0 0l0 0 0 0z"/>
      </g>
      <path class="fil2" d="M1001 1845l1 -1c2,1 3,1 4,2 1,0 2,-1 4,-2 11,-5 19,-8 23,-10 4,-2 10,-5 20,-10l0 1 -14 31 31 -14 1 0 -18 40c-2,3 -3,6 -3,7 0,2 1,3 2,5l-1 1 -13 -14 1 -1c1,2 2,3 3,3 1,0 1,0 2,-1 0,0 1,-1 2,-3l12 -28 -21 10 -2 6c-2,3 -2,5 -2,6 0,1 1,2 2,4l-1 1 -14 -14 1 -1c3,2 5,3 6,2 0,0 1,-2 3,-6l11 -25 -25 11c-2,1 -4,2 -5,3 -1,1 -1,2 -1,3 1,1 1,2 2,3l-1 1 -10 -10z"/>
     </g>
    </g>
    <g id="_1840165376000">
     <g>
      <g>
       <path class="fil2" d="M1490 1848c2,2 4,3 7,3 2,0 5,0 7,-1 3,-1 6,-1 8,-2 3,-1 6,-1 8,0 3,0 6,1 8,3 2,3 4,6 4,10 -1,3 -2,6 -4,9 -2,1 -4,3 -6,4 -3,1 -4,2 -4,2 -1,1 -1,2 0,3l-1 2 -13 -11 1 -1c4,2 8,3 11,3 4,0 6,-1 8,-4 2,-1 3,-3 3,-5 0,-2 -1,-4 -2,-5 -1,-2 -3,-2 -6,-2 -2,-1 -6,0 -10,1 -6,2 -10,3 -14,2 -3,0 -6,-1 -8,-3 -3,-3 -4,-7 -4,-11 0,-4 2,-7 5,-10 2,-2 4,-4 6,-5 3,-1 4,-2 5,-2 0,-1 0,-1 0,-2 0,0 0,-1 -1,-2l2 -1 13 10 -2 1c-4,-2 -8,-2 -11,-2 -4,0 -7,1 -9,4 -2,2 -3,4 -3,6 0,3 1,5 2,6l0 0zm0 0l0 0 0 0z"/>
      </g>
      <g>
       <path class="fil2" d="M1470 1863c-1,-1 -2,-1 -3,-1 -1,0 -2,2 -5,4l-2 2c-3,4 -6,7 -6,9 -1,3 -1,6 1,11l-2 1 -6 -11 29 -29 1 1c-2,2 -3,3 -3,4 0,2 1,3 3,5l24 24c2,2 3,3 4,3 2,0 3,-1 5,-3l1 1 -28 29 -8 -8 1 -1c3,2 5,3 7,2 2,0 4,-2 7,-5l7 -7c1,-1 2,-1 2,-2 0,0 -1,-1 -2,-1l-12 -12 -8 8c-2,2 -3,4 -3,5 0,2 1,4 2,6l-1 1 -12 -12 1 -2c2,2 4,3 6,3 1,0 3,-1 5,-3l8 -9 -13 -13 0 0zm0 0l0 0 0 0z"/>
      </g>
     </g>
     <g>
      <g>
       <path class="fil2" d="M1034 1421c-1,1 -2,2 -2,3 -1,0 -1,1 -1,2 0,1 0,2 1,3 1,1 2,3 4,4l28 29 -1 1 -54 -6 22 21c2,3 4,4 6,4 2,1 3,0 6,-2l1 1 -13 12 -1 -1c2,-2 3,-4 3,-5 0,-2 -2,-4 -5,-7l-24 -24c-2,0 -4,0 -5,1 -1,0 -2,1 -3,2l-1 -1 9 -9 47 5 -18 -18c-3,-3 -5,-4 -6,-5 -2,0 -4,1 -6,3l-1 -1 13 -13 1 1 0 0zm0 0l0 0 0 0z"/>
      </g>
      <path class="fil2" d="M1084 1369l1 1c-1,2 -2,3 -2,4 0,1 0,3 1,4 5,11 9,19 11,23 2,4 5,11 10,20l-1 1 -32 -14 15 31 -1 0 -39 -18c-4,-2 -6,-3 -8,-3 -1,0 -3,1 -4,2l-1 -1 13 -13 1 1c-1,1 -2,2 -2,3 0,1 0,2 0,2 1,1 2,1 3,2l28 13 -9 -21 -6 -3c-3,-1 -5,-2 -6,-2 -2,0 -3,1 -5,3l-1 -1 15 -15 1 1c-3,3 -4,5 -2,6 0,1 2,2 5,3l26 11 -12 -25c-1,-2 -2,-3 -3,-5 -1,0 -1,-1 -2,0 -1,0 -2,1 -4,2l-1 -1 11 -11z"/>
     </g>
    </g>
   </g>
  </g>
 </g>
</svg>