<svg width="100%" height="100%" viewBox="0 0 40 33" fill="none" xmlns="http://www.w3.org/2000/svg">
<path d="M0.639351 18.0412L15.0848 32.3666C15.4971 32.7755 16.0467 33 16.6327 33C17.2194 33 17.7686 32.7752 18.181 32.3666L19.4925 31.0657C19.9046 30.6574 20.1315 30.1121 20.1315 29.5306C20.1315 28.9495 19.9046 28.3858 19.4925 27.9775L11.0653 19.6021L37.839 19.6021C39.0462 19.6021 40 18.6649 40 17.4675V15.6283C40 14.4309 39.0462 13.3992 37.839 13.3992L10.9697 13.3992L19.4922 4.97702C19.9042 4.5681 20.1312 4.0376 20.1312 3.45615C20.1312 2.87534 19.9042 2.3371 19.4922 1.9285L18.1807 0.631763C17.7683 0.222843 17.219 0 16.6324 0C16.0464 0 15.4968 0.225742 15.0844 0.634663L0.639023 14.9598C0.225693 15.37 -0.00162125 15.9176 7.62939e-06 16.4997C-0.00129318 17.0837 0.225693 17.6316 0.639351 18.0412Z" fill="white"/>
</svg>
