<svg width="100%" height="100%" viewBox="0 0 464 464" fill="none" xmlns="http://www.w3.org/2000/svg">
<path d="M215.029 360.97C217.258 363.199 219.904 364.967 222.815 366.173C225.727 367.379 228.848 368 232 368C235.152 368 238.273 367.379 241.185 366.173C244.097 364.967 246.742 363.199 248.971 360.97L339.48 270.461C343.981 265.96 346.509 259.856 346.509 253.491C346.509 247.125 343.981 241.021 339.48 236.52C334.979 232.019 328.875 229.491 322.51 229.491C316.144 229.491 310.04 232.019 305.539 236.52L256 286.059V24C256 17.6348 253.472 11.5303 248.971 7.02944C244.47 2.52856 238.365 0 232 0C225.635 0 219.53 2.52856 215.03 7.02944C210.529 11.5303 208 17.6348 208 24V286.059L158.461 236.52C153.96 232.019 147.856 229.491 141.491 229.491C135.125 229.491 129.021 232.019 124.52 236.52C120.019 241.021 117.491 247.125 117.491 253.491C117.491 259.856 120.019 265.96 124.52 270.461L215.029 360.97Z" fill="white"/>
<path d="M440 208C433.635 208 427.53 210.529 423.029 215.029C418.529 219.53 416 225.635 416 232V416H48V232C48 225.635 45.4714 219.53 40.9706 215.029C36.4697 210.529 30.3652 208 24 208C17.6348 208 11.5303 210.529 7.02944 215.029C2.52856 219.53 0 225.635 0 232V424C0 434.609 4.21427 444.783 11.7157 452.284C19.2172 459.786 29.3913 464 40 464H424C434.609 464 444.783 459.786 452.284 452.284C459.786 444.783 464 434.609 464 424V232C464 225.635 461.471 219.53 456.971 215.029C452.47 210.529 446.365 208 440 208Z" fill="white"/>
</svg>
