<svg width="100%" height="100%" viewBox="0 0 51 51" fill="none" xmlns="http://www.w3.org/2000/svg">
<path d="M50.9797 0.0202637C50.9797 6.7731 48.2972 13.2494 43.5222 18.0243C38.7472 22.7993 32.271 25.4819 25.5181 25.4819C25.5181 18.729 28.2007 12.2528 32.9757 7.47779C37.7506 2.70282 44.2269 0.0202634 50.9797 0.0202637V0.0202637Z" fill="#0593F7"/>
<path d="M0 51C2.95176e-07 44.2472 2.68255 37.7709 7.45753 32.9959C12.2325 28.221 18.7088 25.5384 25.4616 25.5384C25.4616 32.2912 22.779 38.7675 18.0041 43.5425C13.2291 48.3174 6.75284 51 0 51Z" fill="#FF7C02"/>
<path d="M51 50.9839C44.2472 50.9839 37.7709 48.3013 32.9959 43.5264C28.2209 38.7514 25.5384 32.2751 25.5384 25.5223C32.2912 25.5223 38.7675 28.2048 43.5425 32.9798C48.3174 37.7548 51 44.231 51 50.9839V50.9839Z" fill="#F31958"/>
<path d="M0.0161133 0C6.76895 2.95176e-07 13.2452 2.68255 18.0202 7.45753C22.7952 12.2325 25.4777 18.7088 25.4777 25.4616C18.7249 25.4616 12.2486 22.7791 7.47364 18.0041C2.69867 13.2291 0.016113 6.75284 0.0161133 0L0.0161133 0Z" fill="#FFBE00"/>
</svg>
