<svg width="457" height="457" viewBox="0 0 457 457" fill="none" xmlns="http://www.w3.org/2000/svg">
<path fill-rule="evenodd" clip-rule="evenodd" d="M373.42 93.0832H350.49V74.9032C350.333 72.4902 349.264 70.2272 347.5 68.5737C345.736 66.9202 343.408 66 340.99 66C338.572 66 336.244 66.9202 334.48 68.5737C332.716 70.2272 331.647 72.4902 331.49 74.9032V93.0832H238.2V74.9032C238.043 72.4902 236.974 70.2272 235.21 68.5737C233.446 66.9202 231.118 66 228.7 66C226.282 66 223.954 66.9202 222.19 68.5737C220.426 70.2272 219.357 72.4902 219.2 74.9032V93.0832H125V74.9032C124.843 72.4902 123.774 70.2272 122.01 68.5737C120.246 66.9202 117.918 66 115.5 66C113.082 66 110.754 66.9202 108.99 68.5737C107.226 70.2272 106.157 72.4902 106 74.9032V93.0832H84C63.07 93.0832 46 110.683 46 131.613V352.853C45.9922 357.849 46.9692 362.796 48.8754 367.414C50.7815 372.031 53.5793 376.227 57.1088 379.762C60.6382 383.297 64.8299 386.101 69.4442 388.015C74.0585 389.928 79.0048 390.913 84 390.913H373.32C383.398 390.913 393.064 386.91 400.19 379.783C407.316 372.657 411.32 362.991 411.32 352.913V131.613C411.42 110.683 394.38 93.0832 373.45 93.0832H373.42ZM269.89 304.323C271.189 304.239 272.492 304.422 273.718 304.861C274.944 305.3 276.067 305.986 277.017 306.877C277.967 307.767 278.724 308.843 279.242 310.038C279.76 311.233 280.027 312.521 280.027 313.823C280.027 315.125 279.76 316.414 279.242 317.608C278.724 318.803 277.967 319.879 277.017 320.77C276.067 321.66 274.944 322.346 273.718 322.785C272.492 323.224 271.189 323.408 269.89 323.323H253.24C251.941 323.408 250.638 323.224 249.412 322.785C248.186 322.346 247.063 321.66 246.113 320.77C245.163 319.879 244.406 318.803 243.888 317.608C243.37 316.414 243.103 315.125 243.103 313.823C243.103 312.521 243.37 311.233 243.888 310.038C244.406 308.843 245.163 307.767 246.113 306.877C247.063 305.986 248.186 305.3 249.412 304.861C250.638 304.422 251.941 304.239 253.24 304.323H269.89ZM136.96 304.323C139.373 304.492 141.63 305.573 143.275 307.346C144.92 309.119 145.828 311.452 145.815 313.87C145.802 316.288 144.87 318.611 143.207 320.367C141.543 322.123 139.274 323.18 136.86 323.323H120.21C118.911 323.408 117.608 323.224 116.382 322.785C115.156 322.346 114.033 321.66 113.083 320.77C112.133 319.879 111.376 318.803 110.858 317.608C110.34 316.414 110.073 315.125 110.073 313.823C110.073 312.521 110.34 311.233 110.858 310.038C111.376 308.843 112.133 307.767 113.083 306.877C114.033 305.986 115.156 305.3 116.382 304.861C117.608 304.422 118.911 304.239 120.21 304.323H136.96ZM203.66 304.323C204.959 304.239 206.262 304.422 207.488 304.861C208.714 305.3 209.837 305.986 210.787 306.877C211.737 307.767 212.494 308.843 213.012 310.038C213.53 311.233 213.797 312.521 213.797 313.823C213.797 315.125 213.53 316.414 213.012 317.608C212.494 318.803 211.737 319.879 210.787 320.77C209.837 321.66 208.714 322.346 207.488 322.785C206.262 323.224 204.959 323.408 203.66 323.323H187.01C185.711 323.408 184.408 323.224 183.182 322.785C181.956 322.346 180.833 321.66 179.883 320.77C178.933 319.879 178.176 318.803 177.658 317.608C177.14 316.414 176.873 315.125 176.873 313.823C176.873 312.521 177.14 311.233 177.658 310.038C178.176 308.843 178.933 307.767 179.883 306.877C180.833 305.986 181.956 305.3 183.182 304.861C184.408 304.422 185.711 304.239 187.01 304.323H203.66ZM336.66 239.623C339.073 239.78 341.336 240.849 342.99 242.613C344.643 244.378 345.563 246.705 345.563 249.123C345.563 251.541 344.643 253.869 342.99 255.633C341.336 257.398 339.073 258.467 336.66 258.623H320.04C318.741 258.708 317.438 258.524 316.212 258.085C314.986 257.646 313.863 256.96 312.913 256.07C311.963 255.179 311.206 254.103 310.688 252.908C310.17 251.714 309.903 250.425 309.903 249.123C309.903 247.821 310.17 246.533 310.688 245.338C311.206 244.143 311.963 243.067 312.913 242.177C313.863 241.287 314.986 240.6 316.212 240.161C317.438 239.722 318.741 239.539 320.04 239.623H336.66ZM269.86 239.623C271.159 239.539 272.462 239.722 273.688 240.161C274.914 240.6 276.037 241.287 276.987 242.177C277.937 243.067 278.694 244.143 279.212 245.338C279.73 246.533 279.997 247.821 279.997 249.123C279.997 250.425 279.73 251.714 279.212 252.908C278.694 254.103 277.937 255.179 276.987 256.07C276.037 256.96 274.914 257.646 273.688 258.085C272.462 258.524 271.159 258.708 269.86 258.623H253.24C251.941 258.708 250.638 258.524 249.412 258.085C248.186 257.646 247.063 256.96 246.113 256.07C245.163 255.179 244.406 254.103 243.888 252.908C243.37 251.714 243.103 250.425 243.103 249.123C243.103 247.821 243.37 246.533 243.888 245.338C244.406 244.143 245.163 243.067 246.113 242.177C247.063 241.287 248.186 240.6 249.412 240.161C250.638 239.722 251.941 239.539 253.24 239.623H269.86ZM136.93 239.623C139.343 239.792 141.6 240.873 143.245 242.646C144.89 244.419 145.798 246.752 145.785 249.17C145.772 251.589 144.84 253.911 143.177 255.667C141.513 257.423 139.244 258.48 136.83 258.623H120.21C118.911 258.708 117.608 258.524 116.382 258.085C115.156 257.646 114.033 256.96 113.083 256.07C112.133 255.179 111.376 254.103 110.858 252.908C110.34 251.714 110.073 250.425 110.073 249.123C110.073 247.821 110.34 246.533 110.858 245.338C111.376 244.143 112.133 243.067 113.083 242.177C114.033 241.287 115.156 240.6 116.382 240.161C117.608 239.722 118.911 239.539 120.21 239.623H136.93ZM203.63 239.623C204.929 239.539 206.232 239.722 207.458 240.161C208.684 240.6 209.807 241.287 210.757 242.177C211.707 243.067 212.464 244.143 212.982 245.338C213.5 246.533 213.767 247.821 213.767 249.123C213.767 250.425 213.5 251.714 212.982 252.908C212.464 254.103 211.707 255.179 210.757 256.07C209.807 256.96 208.684 257.646 207.458 258.085C206.232 258.524 204.929 258.708 203.63 258.623H187.01C185.711 258.708 184.408 258.524 183.182 258.085C181.956 257.646 180.833 256.96 179.883 256.07C178.933 255.179 178.176 254.103 177.658 252.908C177.14 251.714 176.873 250.425 176.873 249.123C176.873 247.821 177.14 246.533 177.658 245.338C178.176 244.143 178.933 243.067 179.883 242.177C180.833 241.287 181.956 240.6 183.182 240.161C184.408 239.722 185.711 239.539 187.01 239.623H203.63ZM336.63 173.963C339.043 174.12 341.306 175.189 342.96 176.953C344.613 178.718 345.533 181.045 345.533 183.463C345.533 185.881 344.613 188.209 342.96 189.973C341.306 191.738 339.043 192.807 336.63 192.963H320.04C318.741 193.048 317.438 192.864 316.212 192.425C314.986 191.986 313.863 191.3 312.913 190.41C311.963 189.519 311.206 188.443 310.688 187.248C310.17 186.054 309.903 184.765 309.903 183.463C309.903 182.161 310.17 180.873 310.688 179.678C311.206 178.483 311.963 177.407 312.913 176.517C313.863 175.627 314.986 174.94 316.212 174.501C317.438 174.062 318.741 173.879 320.04 173.963H336.63ZM269.83 173.963C271.129 173.879 272.432 174.062 273.658 174.501C274.884 174.94 276.007 175.627 276.957 176.517C277.907 177.407 278.664 178.483 279.182 179.678C279.7 180.873 279.967 182.161 279.967 183.463C279.967 184.765 279.7 186.054 279.182 187.248C278.664 188.443 277.907 189.519 276.957 190.41C276.007 191.3 274.884 191.986 273.658 192.425C272.432 192.864 271.129 193.048 269.83 192.963H253.24C251.941 193.048 250.638 192.864 249.412 192.425C248.186 191.986 247.063 191.3 246.113 190.41C245.163 189.519 244.406 188.443 243.888 187.248C243.37 186.054 243.103 184.765 243.103 183.463C243.103 182.161 243.37 180.873 243.888 179.678C244.406 178.483 245.163 177.407 246.113 176.517C247.063 175.627 248.186 174.94 249.412 174.501C250.638 174.062 251.941 173.879 253.24 173.963H269.83ZM203.6 173.963C204.899 173.879 206.202 174.062 207.428 174.501C208.654 174.94 209.777 175.627 210.727 176.517C211.677 177.407 212.434 178.483 212.952 179.678C213.47 180.873 213.737 182.161 213.737 183.463C213.737 184.765 213.47 186.054 212.952 187.248C212.434 188.443 211.677 189.519 210.727 190.41C209.777 191.3 208.654 191.986 207.428 192.425C206.202 192.864 204.899 193.048 203.6 192.963H187.01C185.711 193.048 184.408 192.864 183.182 192.425C181.956 191.986 180.833 191.3 179.883 190.41C178.933 189.519 178.176 188.443 177.658 187.248C177.14 186.054 176.873 184.765 176.873 183.463C176.873 182.161 177.14 180.873 177.658 179.678C178.176 178.483 178.933 177.407 179.883 176.517C180.833 175.627 181.956 174.94 183.182 174.501C184.408 174.062 185.711 173.879 187.01 173.963H203.6ZM392.36 352.853C392.36 357.865 390.38 362.673 386.852 366.232C383.323 369.791 378.531 371.811 373.52 371.853H83.95C81.4637 371.855 79.0016 371.366 76.7043 370.415C74.407 369.464 72.3197 368.07 70.5616 366.312C68.8035 364.554 67.4092 362.466 66.4583 360.169C65.5075 357.872 65.0187 355.41 65.0201 352.923V131.613C65.0201 121.053 73.49 112.113 83.95 112.113H105.95V125.903C105.866 127.203 106.049 128.506 106.488 129.731C106.927 130.957 107.613 132.08 108.504 133.03C109.394 133.98 110.47 134.737 111.665 135.255C112.86 135.773 114.148 136.04 115.45 136.04C116.752 136.04 118.04 135.773 119.235 135.255C120.43 134.737 121.506 133.98 122.396 133.03C123.287 132.08 123.973 130.957 124.412 129.731C124.851 128.506 125.034 127.203 124.95 125.903V112.153H219.15V125.943C219.066 127.243 219.249 128.546 219.688 129.771C220.127 130.997 220.813 132.12 221.704 133.07C222.594 134.02 223.67 134.777 224.865 135.295C226.06 135.813 227.348 136.08 228.65 136.08C229.952 136.08 231.24 135.813 232.435 135.295C233.63 134.777 234.706 134.02 235.596 133.07C236.487 132.12 237.173 130.997 237.612 129.771C238.051 128.546 238.234 127.243 238.15 125.943V112.153H331.41V125.943C331.326 127.243 331.509 128.546 331.948 129.771C332.387 130.997 333.073 132.12 333.964 133.07C334.854 134.02 335.93 134.777 337.125 135.295C338.32 135.813 339.608 136.08 340.91 136.08C342.212 136.08 343.5 135.813 344.695 135.295C345.89 134.777 346.966 134.02 347.856 133.07C348.747 132.12 349.433 130.997 349.872 129.771C350.311 128.546 350.494 127.243 350.41 125.943V112.153H373.34C383.9 112.153 392.28 121.153 392.28 131.653L392.36 352.853Z" fill="white"/>
</svg>
