<svg width="456" height="457" viewBox="0 0 456 457" fill="none" xmlns="http://www.w3.org/2000/svg">
<path fill-rule="evenodd" clip-rule="evenodd" d="M366.81 124.9L285.6 43.6901C283.169 41.2445 280.276 39.3055 277.091 37.9855C273.905 36.6655 270.489 35.9906 267.04 36.0001H108.25C101.291 36.0107 94.6207 38.7797 89.7001 43.7002C84.7796 48.6208 82.0106 55.2914 82 62.2501V393.75C82.0106 400.709 84.7796 407.379 89.7001 412.3C94.6207 417.22 101.291 419.99 108.25 420H348.25C355.209 419.99 361.879 417.22 366.8 412.3C371.72 407.379 374.489 400.709 374.5 393.75V143.46C374.509 140.012 373.835 136.595 372.515 133.41C371.195 130.224 369.256 127.331 366.81 124.9V124.9ZM184.19 321.6C185.224 320.512 186.466 319.643 187.841 319.042C189.217 318.442 190.698 318.123 192.199 318.103C193.7 318.084 195.189 318.366 196.58 318.931C197.97 319.496 199.233 320.334 200.295 321.395C201.356 322.456 202.195 323.719 202.761 325.109C203.327 326.499 203.61 327.988 203.592 329.489C203.573 330.989 203.255 332.471 202.655 333.847C202.056 335.223 201.187 336.465 200.1 337.5L166.25 371.4C165.206 372.446 163.966 373.276 162.601 373.842C161.236 374.408 159.773 374.699 158.295 374.699C156.817 374.699 155.354 374.408 153.989 373.842C152.624 373.276 151.384 372.446 150.34 371.4L136.25 357.33C135.205 356.285 134.377 355.045 133.811 353.68C133.246 352.315 132.955 350.852 132.955 349.375C132.955 347.898 133.246 346.435 133.811 345.07C134.377 343.705 135.205 342.465 136.25 341.42C137.295 340.375 138.535 339.547 139.9 338.981C141.265 338.416 142.728 338.125 144.205 338.125C145.682 338.125 147.145 338.416 148.51 338.981C149.875 339.547 151.115 340.375 152.16 341.42L158.28 347.54L184.22 321.6H184.19ZM184.19 246.6C185.224 245.512 186.466 244.643 187.841 244.042C189.217 243.442 190.698 243.123 192.199 243.103C193.7 243.084 195.189 243.366 196.58 243.931C197.97 244.496 199.233 245.334 200.295 246.395C201.356 247.456 202.195 248.719 202.761 250.109C203.327 251.499 203.61 252.988 203.592 254.489C203.573 255.989 203.255 257.471 202.655 258.847C202.056 260.223 201.187 261.465 200.1 262.5L166.25 296.4C165.206 297.446 163.966 298.276 162.601 298.842C161.236 299.408 159.773 299.699 158.295 299.699C156.817 299.699 155.354 299.408 153.989 298.842C152.624 298.276 151.384 297.446 150.34 296.4L136.25 282.33C134.14 280.22 132.955 277.359 132.955 274.375C132.955 271.391 134.14 268.53 136.25 266.42C138.36 264.31 141.221 263.125 144.205 263.125C147.189 263.125 150.05 264.31 152.16 266.42L158.28 272.54L184.22 246.6H184.19ZM184.19 165.87C186.3 163.76 189.161 162.575 192.145 162.575C195.129 162.575 197.99 163.76 200.1 165.87C202.21 167.98 203.395 170.841 203.395 173.825C203.395 176.809 202.21 179.67 200.1 181.78L166.25 215.68C164.139 217.787 161.278 218.971 158.295 218.971C155.312 218.971 152.451 217.787 150.34 215.68L136.25 201.6C134.14 199.49 132.955 196.629 132.955 193.645C132.955 190.661 134.14 187.8 136.25 185.69C138.36 183.58 141.221 182.395 144.205 182.395C147.189 182.395 150.05 183.58 152.16 185.69L158.28 191.81L184.22 165.87H184.19ZM312.32 335.25C315.304 335.25 318.165 336.435 320.275 338.545C322.385 340.655 323.57 343.516 323.57 346.5C323.57 349.484 322.385 352.345 320.275 354.455C318.165 356.565 315.304 357.75 312.32 357.75H240.32C237.336 357.75 234.475 356.565 232.365 354.455C230.255 352.345 229.07 349.484 229.07 346.5C229.07 343.516 230.255 340.655 232.365 338.545C234.475 336.435 237.336 335.25 240.32 335.25H312.32ZM240.32 282.75C237.336 282.75 234.475 281.565 232.365 279.455C230.255 277.345 229.07 274.484 229.07 271.5C229.07 268.516 230.255 265.655 232.365 263.545C234.475 261.435 237.336 260.25 240.32 260.25H312C314.984 260.25 317.845 261.435 319.955 263.545C322.065 265.655 323.25 268.516 323.25 271.5C323.25 274.484 322.065 277.345 319.955 279.455C317.845 281.565 314.984 282.75 312 282.75H240.32ZM240.32 207.75C238.843 207.75 237.38 207.459 236.015 206.894C234.65 206.328 233.41 205.5 232.365 204.455C231.32 203.41 230.492 202.17 229.926 200.805C229.361 199.44 229.07 197.977 229.07 196.5C229.07 195.023 229.361 193.56 229.926 192.195C230.492 190.83 231.32 189.59 232.365 188.545C233.41 187.5 234.65 186.672 236.015 186.106C237.38 185.541 238.843 185.25 240.32 185.25H312C314.984 185.25 317.845 186.435 319.955 188.545C322.065 190.655 323.25 193.516 323.25 196.5C323.25 199.484 322.065 202.345 319.955 204.455C317.845 206.565 314.984 207.75 312 207.75H240.32ZM336.09 126H288.25C287.255 126 286.302 125.605 285.598 124.902C284.895 124.198 284.5 123.245 284.5 122.25V74.4101L336.09 126ZM348.25 397.5H108.25C107.255 397.5 106.302 397.105 105.598 396.402C104.895 395.699 104.5 394.745 104.5 393.75V62.2501C104.5 61.2555 104.895 60.3017 105.598 59.5984C106.302 58.8952 107.255 58.5001 108.25 58.5001H262V122.25C262.011 129.209 264.78 135.879 269.7 140.8C274.621 145.721 281.291 148.49 288.25 148.5H352V393.75C352 394.745 351.605 395.699 350.902 396.402C350.198 397.105 349.245 397.5 348.25 397.5Z" fill="white"/>
</svg>
