<svg width="100%" height="100%" viewBox="0 0 101 97" fill="none" xmlns="http://www.w3.org/2000/svg">
<path d="M3 48.5C3 73.5159 24.1511 94 50.5 94C76.8489 94 98 73.5159 98 48.5C98 23.4841 76.8489 3 50.5 3C24.1511 3 3 23.4841 3 48.5Z" fill="white" stroke="#0593F7" stroke-width="6"/>
<path d="M25.8408 48.496L44.2395 30.8255C44.7647 30.3211 45.4647 30.0443 46.2111 30.0443C46.9583 30.0443 47.6579 30.3215 48.1831 30.8255L49.8536 32.4302C50.3784 32.9338 50.6675 33.6065 50.6675 34.3237C50.6675 35.0406 50.3784 35.7359 49.8536 36.2395L39.12 46.5706H73.221C74.7585 46.5706 75.9734 47.7266 75.9734 49.2037V51.4723C75.9734 52.9493 74.7585 54.2218 73.221 54.2218H38.9983L49.8532 64.6107C50.378 65.1151 50.6671 65.7694 50.6671 66.4867C50.6671 67.2031 50.378 67.867 49.8532 68.371L48.1827 69.9705C47.6575 70.4749 46.9579 70.7498 46.2107 70.7498C45.4643 70.7498 44.7643 70.4714 44.2391 69.967L25.8404 52.2969C25.3139 51.7909 25.0244 51.1155 25.0265 50.3974C25.0248 49.677 25.3139 49.0012 25.8408 48.496Z" fill="#0593F7"/>
</svg>
