<svg width="100%" height="100%" viewBox="0 0 97 97" fill="none" xmlns="http://www.w3.org/2000/svg">
<circle cx="48.5" cy="48.5" r="45.5" fill="white" stroke="#0593F7" stroke-width="6"/>
<path d="M72.1825 48.496L54.5125 30.8255C54.0081 30.3211 53.3358 30.0443 52.619 30.0443C51.9013 30.0443 51.2295 30.3215 50.7251 30.8255L49.1208 32.4302C48.6168 32.9338 48.3391 33.6065 48.3391 34.3237C48.3391 35.0406 48.6168 35.7359 49.1208 36.2395L59.4292 46.5706H26.6787C25.2021 46.5706 24.0354 47.7266 24.0354 49.2037V51.4723C24.0354 52.9493 25.2021 54.2218 26.6787 54.2218H59.5462L49.1212 64.6107C48.6171 65.1151 48.3395 65.7694 48.3395 66.4867C48.3395 67.2031 48.6171 67.867 49.1212 68.371L50.7255 69.9705C51.2299 70.4749 51.9017 70.7498 52.6194 70.7498C53.3362 70.7498 54.0085 70.4714 54.5129 69.967L72.1829 52.2969C72.6885 51.7909 72.9666 51.1155 72.9646 50.3974C72.9662 49.677 72.6885 49.0012 72.1825 48.496Z" fill="#0593F7"/>
</svg>
