<svg width="381" height="452" viewBox="0 0 381 452" fill="none" xmlns="http://www.w3.org/2000/svg">
<path d="M367.809 29.9958C367.324 30.0258 366.837 30.0258 366.351 29.9958C366.118 29.9958 365.885 29.9958 365.622 29.9516C365.185 29.9001 364.754 29.8412 364.317 29.7455C364.31 29.7422 364.303 29.7405 364.295 29.7405C364.287 29.7405 364.28 29.7422 364.273 29.7455C364.045 29.7151 363.821 29.6633 363.602 29.5909C363.212 29.4979 362.827 29.3824 362.45 29.2449C361.846 29.0323 361.261 28.7688 360.7 28.4572C360.506 28.3671 360.319 28.2638 360.139 28.1479C358.235 27.0459 356.618 25.5013 355.424 23.6422C354.229 21.7832 353.491 19.6634 353.27 17.4586C353.227 16.9948 353.19 16.5237 353.19 16.0378C353.19 15.7212 353.19 15.4047 353.19 15.1102C353.19 14.9335 353.19 14.7495 353.249 14.558C353.264 14.2735 353.3 13.9905 353.358 13.7114C353.403 13.3516 353.472 12.995 353.562 12.6439C353.698 12.0913 353.869 11.5479 354.072 11.017C354.671 9.45268 355.545 8.01093 356.654 6.76186C357.111 6.26146 357.507 5.70789 357.835 5.11282C358.044 4.74302 358.218 4.35344 358.353 3.94963C358.563 3.34089 358.676 2.70226 358.688 2.05764L358.688 1.78526C358.692 0.833394 358.599 -0.116367 358.411 -1.04902C358.123 -2.45459 357.419 -3.73848 356.391 -4.72994C355.072 -5.99865 353.321 -6.70758 351.499 -6.71031L321.56 -6.71031C321.341 -6.71031 321.123 -6.71031 320.911 -6.71031C320.478 -6.66467 320.051 -6.57582 319.635 -6.44521C318.836 -6.19579 318.093 -5.79062 317.448 -5.2526L316.996 -4.83301C316.844 -4.68846 316.705 -4.5308 316.58 -4.36184C315.77 -3.37396 315.263 -2.16887 315.122 -0.894403L315.122 -0.754533C315.114 -0.634424 315.114 -0.513918 315.122 -0.393808C315.115 -0.325281 315.115 -0.256227 315.122 -0.1877L315.122 30.1062C315.129 31.7441 314.574 33.3339 313.552 34.6059C312.53 35.878 311.104 36.7539 309.515 37.0852C308.589 37.2833 307.646 37.3845 306.7 37.3871L306.452 37.3871C304.723 37.2897 303.083 36.5777 301.822 35.3773C300.162 33.8678 298.159 32.7956 295.989 32.2559C294.892 31.9835 293.766 31.8451 292.635 31.8436C290.7 31.8048 288.778 32.1759 286.993 32.933C285.209 33.69 283.601 34.8163 282.274 36.2392C280.947 37.6621 279.93 39.35 279.289 41.194C278.648 43.0381 278.396 44.9973 278.551 46.9455C278.705 48.8937 279.262 50.7875 280.186 52.5049C281.11 54.2223 282.381 55.7252 283.915 56.9165C285.45 58.1079 287.214 58.9614 289.096 59.4219C290.977 59.8824 292.933 59.9398 294.837 59.5903C295.209 59.5241 295.566 59.4504 295.953 59.3547C298.115 58.8051 300.116 57.7397 301.786 56.2481C303.034 55.0494 304.667 54.3439 306.387 54.2604L306.649 54.2604C307.595 54.2557 308.538 54.3494 309.464 54.5401C311.052 54.8783 312.476 55.7582 313.497 57.0318C314.518 58.3055 315.074 59.8952 315.071 61.5338L315.071 91.7173C315.064 91.7858 315.064 91.8549 315.071 91.9234C315.063 92.0435 315.063 92.164 315.071 92.2841L315.071 92.424C315.212 93.6985 315.719 94.9036 316.529 95.8915C316.671 96.0758 316.829 96.2459 317.003 96.3994C317.149 96.5393 317.302 96.6939 317.455 96.8191C317.455 96.8191 317.455 96.8191 317.506 96.8632C317.979 97.2542 318.508 97.5718 319.074 97.8055C319.262 97.9016 319.46 97.9757 319.664 98.0264C320.08 98.157 320.508 98.2458 320.94 98.2914C321.152 98.2914 321.371 98.2914 321.589 98.2914L351.513 98.2914C353.136 98.295 354.71 97.7328 355.969 96.7C357.229 95.6671 358.096 94.2269 358.425 92.6228C358.615 91.6903 358.708 90.7404 358.703 89.7885L358.703 89.5235C358.691 88.8764 358.578 88.2353 358.367 87.6241C358.012 86.6022 357.457 85.6632 356.734 84.8635C355.44 83.4096 354.471 81.6925 353.89 79.828C353.785 79.5529 353.702 79.2698 353.642 78.9814C353.562 78.6564 353.502 78.327 353.46 77.9949C353.403 77.7158 353.366 77.4328 353.351 77.1482C353.351 76.9568 353.307 76.7728 353.292 76.5961C353.292 76.3016 353.292 75.9851 353.292 75.6685C353.292 75.1827 353.292 74.7115 353.373 74.2477C353.593 72.0437 354.331 69.9246 355.525 68.0667C356.72 66.2087 358.337 64.6656 360.241 63.5657C360.421 63.4475 360.608 63.3417 360.802 63.2491C361.363 62.9375 361.948 62.674 362.552 62.4614C362.929 62.3229 363.313 62.2098 363.704 62.1228C363.922 62.0446 364.146 61.9902 364.375 61.9608C364.382 61.9641 364.39 61.9658 364.397 61.9658C364.405 61.9658 364.412 61.9641 364.419 61.9608C364.856 61.8651 365.287 61.8062 365.724 61.7547C365.957 61.7547 366.191 61.7105 366.453 61.7105C366.939 61.6805 367.426 61.6805 367.912 61.7105C368.145 61.7105 368.378 61.7105 368.641 61.7547C369.078 61.8062 369.508 61.8651 369.946 61.9608C369.953 61.9575 369.96 61.9558 369.968 61.9558C369.975 61.9558 369.983 61.9575 369.99 61.9608C370.218 61.9902 370.443 62.0446 370.66 62.1228C370.881 62.166 371.098 62.2276 371.309 62.3068C371.532 62.3671 371.751 62.4409 371.966 62.5277C372.515 62.7322 373.049 62.9783 373.562 63.2638C373.756 63.3565 373.944 63.4622 374.124 63.5804C376.028 64.6803 377.645 66.2234 378.84 68.0814C380.034 69.9393 380.772 72.0584 380.992 74.2624C381.069 75.0428 381.083 75.8281 381.036 76.6108C381.036 76.7875 381.036 76.9716 380.978 77.163C380.973 77.3835 380.946 77.603 380.897 77.8182C380.905 77.8645 380.905 77.9118 380.897 77.9581C380.901 77.9661 380.903 77.9749 380.903 77.9838C380.903 77.9927 380.901 78.0016 380.897 78.0096C380.852 78.3694 380.784 78.7259 380.693 79.077C380.633 79.3655 380.55 79.6486 380.445 79.9237C379.865 81.7923 378.895 83.5141 377.602 84.9739C376.879 85.7683 376.324 86.7025 375.968 87.7198C375.759 88.3315 375.643 88.9721 375.626 89.6192L375.626 89.8842C375.626 90.3701 375.662 90.856 375.691 91.3566C375.721 91.8572 375.815 92.2989 375.91 92.7479C376.2 94.1527 376.904 95.436 377.93 96.4289C379.253 97.7004 381.01 98.4095 382.837 98.4092L412.732 98.4092C412.965 98.4092 413.184 98.4092 413.395 98.4092C413.828 98.3635 414.256 98.2748 414.671 98.1442C414.873 98.0839 415.07 98.0102 415.262 97.9233C415.654 97.7597 416.028 97.5549 416.377 97.3123C417.097 96.8251 417.712 96.1967 418.186 95.4645L418.463 94.9933C418.557 94.8019 418.652 94.6179 418.725 94.4265C418.974 93.8374 419.136 93.2149 419.206 92.5786L419.206 92.4388C419.214 92.3186 419.214 92.1981 419.206 92.078C419.206 92.078 419.206 92.0265 419.206 92.0118C419.214 91.9654 419.214 91.9182 419.206 91.8719L419.206 61.6884C419.203 60.0498 419.759 58.4601 420.78 57.1864C421.801 55.9128 423.225 55.0329 424.813 54.6947C425.739 54.5033 426.683 54.4095 427.628 54.4149L427.89 54.4149C429.609 54.497 431.24 55.2028 432.484 56.4026C434.156 57.8915 436.156 58.9565 438.317 59.5093C438.696 59.605 439.046 59.6787 439.44 59.7449C441.47 60.0833 443.549 59.9607 445.527 59.3863C447.504 58.8119 449.33 57.7999 450.872 56.424C452.413 55.0481 453.632 53.3427 454.439 51.4318C455.246 49.5208 455.622 47.4523 455.538 45.3766C455.455 43.3008 454.914 41.2699 453.956 39.4313C452.998 37.5928 451.647 35.9928 450 34.7477C448.353 33.5025 446.452 32.6433 444.435 32.2327C442.418 31.8221 440.335 31.8702 438.339 32.3737C436.17 32.9134 434.166 33.9856 432.506 35.4951C431.246 36.6956 429.606 37.4074 427.876 37.5048L427.628 37.5048C426.682 37.503 425.739 37.4019 424.813 37.203C423.225 36.8717 421.798 35.9957 420.776 34.7237C419.755 33.4517 419.2 31.8619 419.206 30.224L419.206 -0.00366052C419.214 -0.0549377 419.214 -0.106955 419.206 -0.158232L419.206 -0.209769C419.214 -0.329878 419.214 -0.450377 419.206 -0.570486L419.206 -0.710364C419.136 -1.34666 418.974 -1.96921 418.725 -2.55823C418.652 -2.74964 418.557 -2.93362 418.463 -3.12502L418.186 -3.59619C417.652 -4.41392 416.946 -5.10217 416.118 -5.61134C415.289 -6.12052 414.36 -6.43796 413.395 -6.54091C413.184 -6.54091 412.965 -6.54091 412.732 -6.54091L382.837 -6.54091C381.01 -6.5412 379.253 -5.8322 377.93 -4.56063C376.899 -3.57122 376.194 -2.28643 375.91 -0.879719C375.815 -0.408558 375.757 0.0405232 375.691 0.511676C375.626 0.982837 375.626 1.46872 375.626 1.98404L375.626 2.25643C375.644 2.90104 375.759 3.53909 375.968 4.14842C376.324 5.16578 376.879 6.0999 377.602 6.89437C378.707 8.15102 379.581 9.59703 380.183 11.1642C380.384 11.6963 380.554 12.2395 380.693 12.7912C380.784 13.1423 380.852 13.4988 380.897 13.8587C380.904 13.8753 380.904 13.8936 380.897 13.9102C380.905 13.9565 380.905 14.0038 380.897 14.0501C380.946 14.2652 380.973 14.4847 380.978 14.7053C380.978 14.8967 381.021 15.0807 381.036 15.2574C381.083 16.0402 381.069 16.8254 380.992 17.6058C380.772 19.8106 380.033 21.9304 378.839 23.7895C377.644 25.6485 376.028 27.1931 374.124 28.2952C373.944 28.411 373.756 28.5143 373.562 28.6044C373.049 28.8899 372.515 29.136 371.966 29.3406C371.751 29.4274 371.532 29.5011 371.309 29.5615C371.097 29.6397 370.881 29.7036 370.66 29.7528C370.442 29.8253 370.217 29.877 369.99 29.9074C369.983 29.9107 369.975 29.9124 369.968 29.9124C369.96 29.9124 369.953 29.9107 369.946 29.9074C369.508 30.0031 369.078 30.0621 368.641 30.1136C368.276 29.9811 368.043 29.981 367.809 29.9958Z" fill="#D1193D" stroke="#A41330" stroke-width="2" stroke-miterlimit="10"/>
<path d="M248.21 -29.3065C248.208 -28.1718 248.347 -27.0411 248.623 -25.9398C249.163 -23.7671 250.237 -21.7603 251.748 -20.0974C252.951 -18.8366 253.662 -17.1927 253.753 -15.46L253.753 -15.2116C253.757 -14.2673 253.663 -13.3251 253.473 -12.3999C253.134 -10.8087 252.254 -9.38128 250.979 -8.35731C249.704 -7.33334 248.112 -6.7752 246.471 -6.77661L215.927 -6.77661C214.573 -6.71389 213.271 -6.23822 212.199 -5.41468C211.128 -4.59117 210.34 -3.45996 209.942 -2.17565C209.75 -1.62315 209.648 -1.0438 209.64 -0.459453L209.64 -0.41563C209.647 -0.364757 209.647 -0.313121 209.64 -0.262248L209.64 29.7168C209.635 31.3423 210.197 32.9195 211.231 34.1812C212.266 35.443 213.708 36.3116 215.315 36.6401C216.248 36.837 217.199 36.9373 218.153 36.9395L218.403 36.9395C220.153 36.8473 221.812 36.1405 223.084 34.9458C224.766 33.4538 226.79 32.3909 228.98 31.8493C230.093 31.5815 231.233 31.4467 232.378 31.4476C234.321 31.4326 236.246 31.8184 238.03 32.5804C239.815 33.3424 241.419 34.464 242.743 35.8739C244.066 37.2837 245.078 38.951 245.716 40.7696C246.354 42.5882 246.602 44.5184 246.446 46.4374C246.29 48.3565 245.733 50.2223 244.81 51.9163C243.886 53.6103 242.617 55.0954 241.084 56.2772C239.55 57.4589 237.784 58.3115 235.9 58.7806C234.015 59.2497 232.053 59.3252 230.137 59.0021C229.754 58.9437 229.4 58.8633 229.002 58.7684C226.815 58.2264 224.792 57.1691 223.106 55.6865C221.844 54.4991 220.193 53.7995 218.455 53.7146L218.19 53.7146C217.237 53.7133 216.286 53.8063 215.352 53.9922C213.746 54.3275 212.305 55.2 211.272 56.4634C210.239 57.7267 209.675 59.3039 209.677 60.9301L209.677 90.8726C209.684 90.9186 209.684 90.9654 209.677 91.0114C209.677 91.0114 209.677 91.0625 209.677 91.0771C209.694 91.6678 209.796 92.253 209.979 92.8153C210.378 94.1166 211.181 95.2599 212.274 96.0822C213.367 96.9045 214.695 97.3637 216.067 97.3943C216.126 97.4013 216.185 97.4013 216.244 97.3943L246.471 97.3943C248.111 97.3925 249.702 97.9496 250.977 98.9721C252.252 99.9947 253.133 101.42 253.473 103.01C253.663 103.938 253.757 104.883 253.753 105.829L253.753 106.085C253.662 107.818 252.951 109.462 251.748 110.722C250.236 112.384 249.162 114.392 248.623 116.565C248.075 118.728 248.062 120.991 248.585 123.161C249.107 125.331 250.15 127.344 251.625 129.029C253.1 130.715 254.963 132.023 257.056 132.843C259.15 133.664 261.412 133.972 263.652 133.742C265.545 133.529 267.375 132.939 269.032 132.007C270.689 131.076 272.139 129.822 273.295 128.322C274.451 126.821 275.289 125.104 275.758 123.275C276.228 121.445 276.319 119.54 276.027 117.675C275.96 117.302 275.887 116.945 275.791 116.558C275.244 114.39 274.177 112.386 272.68 110.715C271.472 109.461 270.761 107.817 270.676 106.085L270.676 105.822C270.674 104.875 270.771 103.931 270.963 103.003C271.302 101.413 272.183 99.9859 273.458 98.9632C274.733 97.9404 276.325 97.3839 277.965 97.387L308.185 97.387C308.278 97.3941 308.371 97.3941 308.465 97.387C310.124 97.3141 311.695 96.6228 312.862 95.4514C314.029 94.2801 314.707 92.7151 314.759 91.0698C314.752 91.0019 314.752 90.9333 314.759 90.8653L314.759 60.9228C314.762 59.2972 314.201 57.7202 313.168 56.4567C312.136 55.1932 310.696 54.3204 309.091 53.9849C308.155 53.7989 307.201 53.706 306.246 53.7074L305.981 53.7074C304.243 53.7935 302.593 54.4929 301.33 55.6792C299.645 57.1642 297.622 58.2218 295.434 58.7611C295.058 58.856 294.696 58.9364 294.306 58.9948C292.254 59.3304 290.152 59.2089 288.153 58.639C286.154 58.0692 284.308 57.0653 282.75 55.7004C281.192 54.3354 279.96 52.6437 279.144 50.748C278.328 48.8523 277.948 46.8003 278.033 44.7411C278.117 42.6819 278.663 40.6672 279.632 38.8434C280.6 37.0195 281.966 35.4323 283.631 34.1971C285.296 32.9618 287.218 32.1096 289.257 31.7022C291.296 31.2948 293.401 31.3426 295.419 31.842C297.61 32.3803 299.635 33.4436 301.315 34.9385C302.587 36.1332 304.246 36.84 305.996 36.9322L306.246 36.9322C307.202 36.9301 308.156 36.8297 309.091 36.6328C310.697 36.3042 312.139 35.4352 313.172 34.1733C314.205 32.9114 314.766 31.3343 314.759 29.7095L314.759 -0.276871C314.752 -0.342407 314.752 -0.408493 314.759 -0.47403C314.75 -1.05766 314.651 -1.63649 314.464 -2.19028C314.073 -3.47562 313.288 -4.60873 312.219 -5.43297C311.149 -6.2572 309.848 -6.73189 308.494 -6.79124L277.973 -6.79124C276.331 -6.78847 274.739 -7.34604 273.463 -8.37024C272.188 -9.39442 271.308 -10.8227 270.971 -12.4146C270.778 -13.3395 270.681 -14.2817 270.683 -15.2262L270.683 -15.4891C270.771 -17.2124 271.48 -18.8474 272.68 -20.0974C274.177 -21.7684 275.244 -23.7727 275.791 -25.9398C275.887 -26.3123 275.96 -26.6701 276.027 -27.0645C276.346 -28.9584 276.266 -30.8975 275.79 -32.7589C275.314 -34.6204 274.453 -36.3636 273.262 -37.8785C272.071 -39.3934 270.576 -40.647 268.871 -41.5598C267.166 -42.4725 265.289 -43.0248 263.357 -43.1815C261.425 -43.3382 259.482 -43.096 257.65 -42.4702C255.818 -41.8443 254.137 -40.8484 252.713 -39.5456C251.289 -38.2428 250.154 -36.6615 249.379 -34.9015C248.604 -33.1416 248.206 -31.2414 248.21 -29.3212L248.21 -29.3065Z" fill="#F06522" stroke="#D05011" stroke-width="2" stroke-miterlimit="10"/>
<path d="M248.21 181.145C248.208 182.28 248.347 183.41 248.623 184.512C249.163 186.684 250.237 188.691 251.748 190.354C252.951 191.615 253.662 193.259 253.753 194.991L253.753 195.24C253.757 196.184 253.663 197.126 253.473 198.051C253.134 199.643 252.254 201.07 250.979 202.094C249.704 203.118 248.112 203.676 246.471 203.675L215.927 203.675C214.573 203.738 213.271 204.213 212.199 205.037C211.128 205.86 210.34 206.991 209.942 208.276C209.75 208.828 209.648 209.408 209.64 209.992L209.64 210.036C209.647 210.087 209.647 210.138 209.64 210.189L209.64 240.168C209.635 241.794 210.197 243.371 211.231 244.633C212.266 245.894 213.708 246.763 215.315 247.092C216.248 247.288 217.199 247.389 218.153 247.391L218.403 247.391C220.153 247.299 221.812 246.592 223.084 245.397C224.766 243.905 226.79 242.842 228.98 242.301C230.093 242.033 231.233 241.898 232.378 241.899C234.321 241.884 236.246 242.27 238.03 243.032C239.815 243.794 241.419 244.915 242.743 246.325C244.066 247.735 245.078 249.402 245.716 251.221C246.354 253.04 246.602 254.97 246.446 256.889C246.29 258.808 245.733 260.674 244.81 262.368C243.886 264.062 242.617 265.547 241.084 266.729C239.55 267.91 237.784 268.763 235.9 269.232C234.015 269.701 232.053 269.777 230.137 269.454C229.754 269.395 229.4 269.315 229.002 269.22C226.815 268.678 224.792 267.621 223.106 266.138C221.844 264.951 220.193 264.251 218.455 264.166L218.19 264.166C217.237 264.165 216.286 264.258 215.352 264.444C213.746 264.779 212.305 265.651 211.272 266.915C210.239 268.178 209.675 269.755 209.677 271.381L209.677 301.324C209.684 301.37 209.684 301.417 209.677 301.463C209.677 301.463 209.677 301.514 209.677 301.529C209.694 302.119 209.796 302.704 209.979 303.267C210.378 304.568 211.181 305.711 212.274 306.534C213.367 307.356 214.695 307.815 216.067 307.846C216.126 307.853 216.185 307.853 216.244 307.846L246.471 307.846C248.111 307.844 249.702 308.401 250.977 309.424C252.252 310.446 253.133 311.872 253.473 313.462C253.663 314.389 253.757 315.334 253.753 316.281L253.753 316.536C253.662 318.269 252.951 319.913 251.748 321.174C250.236 322.836 249.162 324.843 248.623 327.016C248.075 329.18 248.062 331.443 248.585 333.612C249.107 335.782 250.15 337.795 251.625 339.48C253.1 341.166 254.963 342.474 257.056 343.295C259.15 344.115 261.412 344.423 263.652 344.193C265.545 343.98 267.375 343.39 269.032 342.459C270.689 341.528 272.139 340.274 273.295 338.773C274.451 337.272 275.289 335.556 275.758 333.726C276.228 331.897 276.319 329.992 276.027 328.126C275.96 327.754 275.887 327.396 275.791 327.009C275.244 324.842 274.177 322.837 272.68 321.166C271.472 319.912 270.761 318.268 270.676 316.536L270.676 316.273C270.674 315.327 270.771 314.382 270.963 313.454C271.302 311.864 272.183 310.437 273.458 309.415C274.733 308.392 276.325 307.835 277.965 307.838L308.185 307.838C308.278 307.845 308.371 307.845 308.465 307.838C310.124 307.766 311.695 307.074 312.862 305.903C314.029 304.731 314.707 303.166 314.759 301.521C314.752 301.453 314.752 301.385 314.759 301.317L314.759 271.374C314.762 269.749 314.201 268.172 313.168 266.908C312.136 265.645 310.696 264.772 309.091 264.436C308.155 264.25 307.201 264.157 306.246 264.159L305.981 264.159C304.243 264.245 302.593 264.944 301.33 266.131C299.645 267.616 297.622 268.673 295.434 269.213C295.058 269.307 294.696 269.388 294.306 269.446C292.254 269.782 290.152 269.66 288.153 269.09C286.154 268.521 284.308 267.517 282.75 266.152C281.192 264.787 279.96 263.095 279.144 261.199C278.328 259.304 277.948 257.252 278.033 255.193C278.117 253.133 278.663 251.119 279.632 249.295C280.6 247.471 281.966 245.884 283.631 244.648C285.296 243.413 287.218 242.561 289.257 242.154C291.296 241.746 293.401 241.794 295.419 242.293C297.61 242.832 299.635 243.895 301.315 245.39C302.587 246.585 304.246 247.291 305.996 247.384L306.246 247.384C307.202 247.381 308.156 247.281 309.091 247.084C310.697 246.756 312.139 245.887 313.172 244.625C314.205 243.363 314.766 241.786 314.759 240.161L314.759 210.175C314.752 210.109 314.752 210.043 314.759 209.977C314.75 209.394 314.651 208.815 314.464 208.261C314.073 206.976 313.288 205.843 312.219 205.018C311.149 204.194 309.848 203.72 308.494 203.66L277.973 203.66C276.331 203.663 274.739 203.105 273.463 202.081C272.188 201.057 271.308 199.629 270.971 198.037C270.778 197.112 270.681 196.17 270.683 195.225L270.683 194.962C270.771 193.239 271.48 191.604 272.68 190.354C274.177 188.683 275.244 186.679 275.791 184.512C275.887 184.139 275.96 183.781 276.027 183.387C276.346 181.493 276.266 179.554 275.79 177.693C275.314 175.831 274.453 174.088 273.262 172.573C272.071 171.058 270.576 169.804 268.871 168.892C267.166 167.979 265.289 167.427 263.357 167.27C261.425 167.113 259.482 167.355 257.65 167.981C255.818 168.607 254.137 169.603 252.713 170.906C251.289 172.209 250.154 173.79 249.379 175.55C248.604 177.31 248.206 179.21 248.21 181.13L248.21 181.145Z" fill="#4254A6" stroke="#344383" stroke-width="2" stroke-miterlimit="10"/>
<path d="M367.81 240.446C367.324 240.476 366.837 240.476 366.352 240.446C366.118 240.446 365.885 240.446 365.623 240.402C365.185 240.35 364.755 240.291 364.317 240.195C364.311 240.192 364.303 240.19 364.295 240.19C364.288 240.19 364.28 240.192 364.274 240.195C364.046 240.165 363.821 240.113 363.603 240.041C363.213 239.948 362.828 239.832 362.451 239.695C361.847 239.482 361.261 239.219 360.701 238.907C360.507 238.817 360.319 238.714 360.139 238.598C358.235 237.496 356.619 235.951 355.424 234.092C354.23 232.233 353.492 230.113 353.271 227.909C353.227 227.445 353.191 226.974 353.191 226.488C353.191 226.171 353.191 225.855 353.191 225.56C353.191 225.383 353.191 225.199 353.249 225.008C353.264 224.723 353.301 224.44 353.358 224.161C353.404 223.802 353.472 223.445 353.563 223.094C353.699 222.541 353.869 221.998 354.073 221.467C354.671 219.903 355.546 218.461 356.654 217.212C357.111 216.711 357.508 216.158 357.835 215.563C358.045 215.193 358.218 214.803 358.353 214.4C358.563 213.791 358.677 213.152 358.688 212.508L358.688 212.235C358.693 211.283 358.6 210.334 358.411 209.401C358.124 207.995 357.419 206.711 356.392 205.72C355.072 204.451 353.321 203.742 351.499 203.74L321.561 203.74C321.342 203.74 321.123 203.74 320.912 203.74C320.479 203.785 320.051 203.874 319.636 204.005C318.836 204.254 318.093 204.659 317.448 205.197L316.996 205.617C316.844 205.761 316.705 205.919 316.581 206.088C315.771 207.076 315.264 208.281 315.122 209.556L315.122 209.695C315.114 209.816 315.114 209.936 315.122 210.056C315.115 210.125 315.115 210.194 315.122 210.262L315.122 240.556C315.129 242.194 314.574 243.784 313.552 245.056C312.53 246.328 311.104 247.204 309.515 247.535C308.59 247.733 307.647 247.834 306.701 247.837L306.453 247.837C304.723 247.74 303.083 247.028 301.823 245.827C300.163 244.318 298.159 243.246 295.99 242.706C294.892 242.433 293.766 242.295 292.636 242.294C290.7 242.255 288.779 242.626 286.994 243.383C285.209 244.14 283.602 245.266 282.275 246.689C280.948 248.112 279.931 249.8 279.289 251.644C278.648 253.488 278.397 255.447 278.551 257.395C278.706 259.344 279.263 261.237 280.187 262.955C281.111 264.672 282.381 266.175 283.916 267.366C285.45 268.558 287.215 269.411 289.096 269.872C290.977 270.332 292.933 270.39 294.838 270.04C295.21 269.974 295.567 269.9 295.953 269.805C298.116 269.255 300.116 268.19 301.786 266.698C303.034 265.499 304.667 264.794 306.387 264.71L306.65 264.71C307.595 264.706 308.538 264.799 309.464 264.99C311.052 265.328 312.477 266.208 313.498 267.482C314.519 268.755 315.074 270.345 315.071 271.984L315.071 302.167C315.064 302.236 315.064 302.305 315.071 302.373C315.063 302.493 315.063 302.614 315.071 302.734L315.071 302.874C315.213 304.148 315.72 305.354 316.53 306.341C316.671 306.526 316.83 306.696 317.004 306.849C317.149 306.989 317.303 307.144 317.456 307.269C317.456 307.269 317.456 307.269 317.507 307.313C317.98 307.704 318.508 308.022 319.074 308.255C319.262 308.352 319.46 308.426 319.665 308.476C320.081 308.607 320.508 308.696 320.941 308.741C321.152 308.741 321.371 308.741 321.59 308.741L351.514 308.741C353.136 308.745 354.71 308.183 355.97 307.15C357.229 306.117 358.097 304.677 358.426 303.073C358.615 302.14 358.708 301.19 358.703 300.238L358.703 299.973C358.692 299.326 358.579 298.685 358.368 298.074C358.013 297.052 357.457 296.113 356.734 295.313C355.441 293.86 354.471 292.142 353.891 290.278C353.786 290.003 353.703 289.72 353.643 289.431C353.563 289.106 353.502 288.777 353.46 288.445C353.403 288.166 353.366 287.883 353.351 287.598C353.351 287.407 353.307 287.223 353.293 287.046C353.293 286.752 353.293 286.435 353.293 286.118C353.293 285.633 353.293 285.161 353.373 284.698C353.593 282.494 354.331 280.375 355.526 278.517C356.72 276.659 358.337 275.116 360.241 274.016C360.421 273.897 360.609 273.792 360.803 273.699C361.363 273.387 361.949 273.124 362.553 272.911C362.929 272.773 363.314 272.66 363.705 272.573C363.922 272.495 364.147 272.44 364.376 272.411C364.383 272.414 364.39 272.416 364.398 272.416C364.405 272.416 364.413 272.414 364.419 272.411C364.857 272.315 365.287 272.256 365.725 272.205C365.958 272.205 366.191 272.16 366.454 272.16C366.939 272.13 367.426 272.13 367.912 272.16C368.145 272.16 368.379 272.16 368.641 272.205C369.079 272.256 369.509 272.315 369.946 272.411C369.953 272.407 369.961 272.406 369.968 272.406C369.976 272.406 369.983 272.407 369.99 272.411C370.219 272.44 370.444 272.495 370.661 272.573C370.882 272.616 371.099 272.678 371.31 272.757C371.533 272.817 371.752 272.891 371.966 272.978C372.516 273.182 373.05 273.428 373.563 273.714C373.757 273.806 373.944 273.912 374.124 274.03C376.029 275.13 377.645 276.673 378.84 278.531C380.035 280.389 380.773 282.508 380.993 284.712C381.069 285.493 381.084 286.278 381.037 287.061C381.037 287.237 381.036 287.422 380.978 287.613C380.973 287.833 380.946 288.053 380.898 288.268C380.906 288.314 380.906 288.362 380.898 288.408C380.902 288.416 380.904 288.425 380.904 288.434C380.904 288.443 380.902 288.452 380.898 288.46C380.852 288.819 380.784 289.176 380.694 289.527C380.634 289.815 380.551 290.099 380.446 290.374C379.865 292.242 378.895 293.964 377.602 295.424C376.88 296.218 376.324 297.152 375.969 298.17C375.759 298.781 375.644 299.422 375.626 300.069L375.626 300.334C375.626 300.82 375.663 301.306 375.692 301.807C375.721 302.307 375.816 302.749 375.911 303.198C376.2 304.603 376.904 305.886 377.93 306.879C379.254 308.15 381.011 308.859 382.837 308.859L412.732 308.859C412.965 308.859 413.184 308.859 413.396 308.859C413.829 308.814 414.256 308.725 414.672 308.594C414.873 308.534 415.07 308.46 415.262 308.373C415.654 308.21 416.028 308.005 416.378 307.762C417.097 307.275 417.712 306.647 418.186 305.914L418.463 305.443C418.558 305.252 418.653 305.068 418.726 304.876C418.974 304.287 419.136 303.665 419.207 303.029L419.207 302.889C419.215 302.769 419.215 302.648 419.207 302.528C419.207 302.528 419.207 302.476 419.207 302.462C419.214 302.415 419.214 302.368 419.207 302.322L419.207 272.138C419.204 270.5 419.759 268.91 420.781 267.636C421.802 266.363 423.226 265.483 424.814 265.145C425.74 264.953 426.683 264.859 427.628 264.865L427.891 264.865C429.609 264.947 431.241 265.653 432.484 266.853C434.157 268.341 436.156 269.406 438.318 269.959C438.697 270.055 439.047 270.129 439.44 270.195C441.471 270.533 443.55 270.411 445.527 269.836C447.505 269.262 449.33 268.25 450.872 266.874C452.414 265.498 453.632 263.793 454.44 261.882C455.247 259.971 455.622 257.902 455.539 255.827C455.455 253.751 454.915 251.72 453.957 249.881C452.999 248.043 451.647 246.443 450 245.198C448.353 243.952 446.452 243.093 444.435 242.683C442.418 242.272 440.336 242.32 438.339 242.824C436.17 243.363 434.167 244.436 432.506 245.945C431.246 247.146 429.606 247.857 427.876 247.955L427.628 247.955C426.682 247.953 425.739 247.852 424.814 247.653C423.225 247.322 421.799 246.446 420.777 245.174C419.755 243.902 419.2 242.312 419.207 240.674L419.207 210.446C419.214 210.395 419.214 210.343 419.207 210.292L419.207 210.24C419.215 210.12 419.215 210 419.207 209.879L419.207 209.74C419.136 209.103 418.974 208.481 418.726 207.892C418.653 207.7 418.558 207.516 418.463 207.325L418.186 206.854C417.653 206.036 416.946 205.348 416.118 204.839C415.29 204.329 414.36 204.012 413.396 203.909C413.184 203.909 412.965 203.909 412.732 203.909L382.837 203.909C381.011 203.909 379.254 204.618 377.93 205.889C376.9 206.879 376.195 208.164 375.911 209.57C375.816 210.041 375.758 210.49 375.692 210.962C375.626 211.433 375.626 211.919 375.626 212.434L375.626 212.706C375.644 213.351 375.76 213.989 375.969 214.598C376.324 215.616 376.88 216.55 377.602 217.344C378.708 218.601 379.582 220.047 380.183 221.614C380.384 222.146 380.555 222.689 380.694 223.241C380.784 223.592 380.852 223.949 380.898 224.309C380.904 224.325 380.904 224.344 380.898 224.36C380.906 224.406 380.906 224.454 380.898 224.5C380.946 224.715 380.973 224.935 380.978 225.155C380.978 225.347 381.022 225.531 381.037 225.707C381.084 226.49 381.069 227.275 380.993 228.056C380.772 230.261 380.034 232.38 378.839 234.239C377.645 236.098 376.028 237.643 374.124 238.745C373.944 238.861 373.757 238.964 373.563 239.054C373.05 239.34 372.516 239.586 371.966 239.791C371.752 239.877 371.533 239.951 371.31 240.011C371.098 240.09 370.881 240.154 370.661 240.203C370.443 240.275 370.218 240.327 369.99 240.357C369.983 240.361 369.976 240.362 369.968 240.362C369.961 240.362 369.953 240.361 369.946 240.357C369.509 240.453 369.079 240.512 368.641 240.564C368.277 240.431 368.043 240.431 367.81 240.446Z" fill="#912891" stroke="#601A60" stroke-width="2" stroke-miterlimit="10"/>
<path d="M158.569 29.3505C158.083 29.3806 157.596 29.3806 157.11 29.3505C156.877 29.3505 156.644 29.3505 156.381 29.3063C155.944 29.2548 155.514 29.1959 155.076 29.1002C155.069 29.097 155.062 29.0952 155.054 29.0952C155.047 29.0952 155.039 29.097 155.032 29.1002C154.805 29.0698 154.58 29.018 154.362 28.9456C153.971 28.8527 153.587 28.7372 153.21 28.5996C152.605 28.387 152.02 28.1235 151.46 27.8119C151.266 27.7219 151.078 27.6185 150.898 27.5027C148.994 26.4006 147.378 24.856 146.183 22.997C144.989 21.1379 144.25 19.0181 144.03 16.8133C143.986 16.3496 143.95 15.8784 143.95 15.3925C143.95 15.076 143.95 14.7594 143.95 14.4649C143.95 14.2882 143.95 14.1042 144.008 13.9128C144.023 13.6282 144.06 13.3452 144.117 13.0662C144.163 12.7063 144.231 12.3498 144.321 11.9987C144.457 11.446 144.628 10.9027 144.832 10.3718C145.43 8.80742 146.305 7.36567 147.413 6.1166C147.87 5.61619 148.267 5.06263 148.594 4.46756C148.804 4.09775 148.977 3.70817 149.112 3.30437C149.322 2.69562 149.435 2.057 149.447 1.41238L149.447 1.14C149.451 0.18813 149.359 -0.761631 149.17 -1.69429C148.883 -3.09986 148.178 -4.38375 147.15 -5.3752C145.831 -6.64391 144.08 -7.35284 142.258 -7.35558L112.319 -7.35558C112.101 -7.35558 111.882 -7.35558 111.671 -7.35558C111.238 -7.30994 110.81 -7.22109 110.395 -7.09047C109.595 -6.84106 108.852 -6.43588 108.207 -5.89786L107.755 -5.47827C107.603 -5.33373 107.464 -5.17607 107.339 -5.0071C106.53 -4.01922 106.023 -2.81413 105.881 -1.53967L105.881 -1.3998C105.873 -1.27969 105.873 -1.15918 105.881 -1.03907C105.874 -0.970544 105.874 -0.901491 105.881 -0.832964L105.881 29.461C105.888 31.0989 105.333 32.6887 104.311 33.9607C103.289 35.2327 101.863 36.1086 100.274 36.4399C99.3487 36.638 98.4056 36.7392 97.4597 36.7418L97.2118 36.7418C95.4819 36.6444 93.8419 35.9325 92.5817 34.732C90.9215 33.2226 88.9178 32.1504 86.7486 31.6106C85.651 31.3382 84.5249 31.1998 83.3946 31.1983C81.4592 31.1595 79.5373 31.5306 77.7527 32.2877C75.9681 33.0448 74.3605 34.1711 73.0334 35.594C71.7064 37.0168 70.6895 38.7047 70.0481 40.5488C69.4068 42.3928 69.1553 44.352 69.3099 46.3002C69.4645 48.2484 70.0218 50.1423 70.9458 51.8597C71.8697 53.5771 73.1399 55.0799 74.6744 56.2713C76.2089 57.4626 77.9737 58.3161 79.8549 58.7766C81.7361 59.2372 83.692 59.2945 85.5966 58.945C85.9684 58.8788 86.3257 58.8052 86.7122 58.7095C88.8746 58.1598 90.875 57.0945 92.5453 55.6028C93.7929 54.4042 95.4259 53.6987 97.1461 53.6151L97.4086 53.6151C98.3538 53.6104 99.2969 53.7042 100.223 53.8948C101.811 54.233 103.235 55.1129 104.256 56.3866C105.278 57.6602 105.833 59.25 105.83 60.8886L105.83 91.0721C105.823 91.1406 105.823 91.2096 105.83 91.2782C105.822 91.3983 105.822 91.5188 105.83 91.6389L105.83 91.7788C105.972 93.0532 106.478 94.2583 107.288 95.2462C107.43 95.4305 107.589 95.6006 107.762 95.7542C107.908 95.894 108.061 96.0486 108.214 96.1738C108.214 96.1738 108.214 96.1738 108.265 96.218C108.739 96.609 109.267 96.9265 109.833 97.1602C110.021 97.2563 110.219 97.3304 110.424 97.3811C110.839 97.5118 111.267 97.6005 111.7 97.6462C111.911 97.6462 112.13 97.6462 112.349 97.6462L142.272 97.6462C143.895 97.6497 145.469 97.0876 146.728 96.0547C147.988 95.0219 148.856 93.5817 149.185 91.9775C149.374 91.045 149.467 90.0952 149.462 89.1433L149.462 88.8782C149.451 88.2311 149.337 87.59 149.126 86.9789C148.772 85.957 148.216 85.018 147.493 84.2182C146.199 82.7644 145.23 81.0472 144.649 79.1827C144.545 78.9076 144.462 78.6246 144.402 78.3361C144.322 78.0112 144.261 77.6817 144.219 77.3496C144.162 77.0706 144.125 76.7875 144.11 76.503C144.11 76.3116 144.066 76.1275 144.052 75.9508C144.052 75.6564 144.052 75.3398 144.052 75.0233C144.052 74.5374 144.052 74.0662 144.132 73.6024C144.352 71.3984 145.09 69.2794 146.284 67.4214C147.479 65.5635 149.096 64.0204 151 62.9204C151.18 62.8023 151.368 62.6965 151.562 62.6038C152.122 62.2922 152.707 62.0288 153.312 61.8162C153.688 61.6777 154.073 61.5645 154.464 61.4775C154.681 61.3993 154.906 61.345 155.134 61.3155C155.141 61.3188 155.149 61.3205 155.156 61.3205C155.164 61.3205 155.171 61.3188 155.178 61.3155C155.616 61.2198 156.046 61.161 156.483 61.1094C156.717 61.1094 156.95 61.0653 157.213 61.0653C157.698 61.0352 158.185 61.0352 158.671 61.0653C158.904 61.0653 159.137 61.0653 159.4 61.1094C159.837 61.161 160.268 61.2198 160.705 61.3155C160.712 61.3123 160.719 61.3106 160.727 61.3106C160.735 61.3106 160.742 61.3123 160.749 61.3155C160.978 61.345 161.202 61.3993 161.42 61.4775C161.641 61.5207 161.858 61.5823 162.069 61.6616C162.291 61.7219 162.511 61.7956 162.725 61.8824C163.275 62.087 163.808 62.333 164.322 62.6186C164.516 62.7112 164.703 62.8169 164.883 62.9351C166.787 64.0351 168.404 65.5782 169.599 67.4361C170.794 69.2941 171.532 71.4132 171.752 73.6171C171.828 74.3975 171.843 75.1828 171.795 75.9656C171.795 76.1423 171.795 76.3263 171.737 76.5177C171.732 76.7383 171.705 76.9578 171.657 77.1729C171.664 77.2192 171.664 77.2665 171.657 77.3128C171.661 77.3208 171.663 77.3296 171.663 77.3385C171.663 77.3475 171.661 77.3563 171.657 77.3643C171.611 77.7242 171.543 78.0807 171.453 78.4318C171.393 78.7202 171.31 79.0034 171.205 79.2784C170.624 81.147 169.654 82.8688 168.361 84.3286C167.638 85.1231 167.083 86.0572 166.728 87.0746C166.518 87.6863 166.402 88.3268 166.385 88.9739L166.385 89.239C166.385 89.7248 166.422 90.2107 166.451 90.7113C166.48 91.2119 166.575 91.6536 166.669 92.1027C166.959 93.5074 167.663 94.7907 168.689 95.7836C170.012 97.0552 171.769 97.7642 173.596 97.7639L203.491 97.7639C203.724 97.7639 203.943 97.7639 204.154 97.7639C204.587 97.7183 205.015 97.6295 205.43 97.4989C205.632 97.4387 205.829 97.3649 206.021 97.2781C206.413 97.1144 206.787 96.9096 207.137 96.667C207.856 96.1799 208.471 95.5514 208.945 94.8192L209.222 94.3481C209.317 94.1567 209.412 93.9726 209.484 93.7812C209.733 93.1922 209.895 92.5697 209.966 91.9334L209.966 91.7935C209.974 91.6734 209.974 91.5529 209.966 91.4328C209.966 91.4328 209.966 91.3812 209.966 91.3665C209.973 91.3201 209.973 91.273 209.966 91.2266L209.966 61.0431C209.963 59.4045 210.518 57.8148 211.539 56.5412C212.56 55.2675 213.985 54.3876 215.573 54.0494C216.499 53.858 217.442 53.7643 218.387 53.7697L218.65 53.7697C220.368 53.8517 221.999 54.5576 223.243 55.7574C224.916 57.2462 226.915 58.3112 229.076 58.8641C229.456 58.9598 229.806 59.0334 230.199 59.0997C232.229 59.438 234.309 59.3155 236.286 58.741C238.263 58.1666 240.089 57.1547 241.631 55.7787C243.172 54.4028 244.391 52.6974 245.198 50.7865C246.006 48.8756 246.381 46.8071 246.298 44.7313C246.214 42.6555 245.674 40.6246 244.716 38.7861C243.758 36.9475 242.406 35.3476 240.759 34.1024C239.112 32.8572 237.211 31.9981 235.194 31.5874C233.177 31.1768 231.095 31.225 229.098 31.7284C226.929 32.2682 224.925 33.3404 223.265 34.8498C222.005 36.0503 220.365 36.7622 218.635 36.8596L218.387 36.8596C217.441 36.8578 216.498 36.7566 215.573 36.5578C213.984 36.2264 212.558 35.3505 211.536 34.0784C210.514 32.8064 209.959 31.2166 209.966 29.5787L209.966 -0.648924C209.973 -0.700201 209.973 -0.752219 209.966 -0.803496L209.966 -0.855032C209.974 -0.975142 209.974 -1.09564 209.966 -1.21575L209.966 -1.35563C209.895 -1.99193 209.733 -2.61447 209.484 -3.2035C209.412 -3.3949 209.317 -3.57888 209.222 -3.77028L208.945 -4.24145C208.411 -5.05918 207.705 -5.74743 206.877 -6.25661C206.049 -6.76578 205.119 -7.08322 204.154 -7.18618C203.943 -7.18618 203.724 -7.18618 203.491 -7.18618L173.596 -7.18618C171.769 -7.18646 170.012 -6.47746 168.689 -5.20589C167.659 -4.21648 166.954 -2.9317 166.669 -1.52498C166.575 -1.05382 166.516 -0.60474 166.451 -0.133587C166.385 0.337574 166.385 0.823452 166.385 1.33878L166.385 1.61116C166.403 2.25578 166.519 2.89383 166.728 3.50315C167.083 4.52052 167.638 5.45464 168.361 6.2491C169.467 7.50576 170.341 8.95176 170.942 10.519C171.143 11.051 171.313 11.5942 171.453 12.1459C171.543 12.497 171.611 12.8536 171.657 13.2134C171.663 13.23 171.663 13.2483 171.657 13.2649C171.664 13.3113 171.664 13.3585 171.657 13.4048C171.705 13.62 171.732 13.8395 171.737 14.06C171.737 14.2514 171.781 14.4355 171.795 14.6122C171.843 15.3949 171.828 16.1802 171.752 16.9605C171.531 19.1653 170.793 21.2852 169.598 23.1442C168.404 25.0033 166.787 26.5479 164.883 27.6499C164.703 27.7658 164.516 27.8691 164.322 27.9591C163.808 28.2446 163.275 28.4907 162.725 28.6953C162.511 28.7821 162.291 28.8559 162.069 28.9162C161.857 28.9944 161.64 29.0583 161.42 29.1076C161.201 29.18 160.977 29.2318 160.749 29.2622C160.742 29.2654 160.735 29.2672 160.727 29.2672C160.719 29.2672 160.712 29.2654 160.705 29.2622C160.268 29.3579 159.837 29.4168 159.4 29.4683C159.035 29.3358 158.802 29.3358 158.569 29.3505Z" fill="#912891" stroke="#601A60" stroke-width="2" stroke-miterlimit="10"/>
<path d="M353.185 75.9007C353.183 77.0426 353.32 78.1803 353.593 79.2885C354.128 81.4748 355.19 83.4942 356.686 85.1675C357.876 86.4361 358.579 88.0903 358.669 89.8339L358.669 90.0838C358.674 91.034 358.581 91.982 358.392 92.913C358.057 94.5142 357.186 95.9505 355.924 96.9809C354.663 98.0113 353.088 98.5729 351.464 98.5715L321.242 98.5715C319.901 98.6346 318.613 99.1133 317.553 99.9419C316.493 100.771 315.713 101.909 315.32 103.201C315.129 103.757 315.029 104.34 315.021 104.928L315.021 104.972C315.028 105.023 315.028 105.075 315.021 105.127L315.021 135.293C315.016 136.929 315.572 138.516 316.596 139.785C317.619 141.055 319.047 141.929 320.636 142.26C321.559 142.458 322.5 142.559 323.444 142.561L323.692 142.561C325.423 142.468 327.065 141.757 328.323 140.555C329.988 139.053 331.99 137.984 334.158 137.439C335.258 137.169 336.387 137.034 337.52 137.035C339.442 137.02 341.347 137.408 343.112 138.174C344.878 138.941 346.466 140.07 347.775 141.489C349.084 142.907 350.086 144.585 350.717 146.415C351.348 148.245 351.594 150.187 351.44 152.118C351.285 154.049 350.734 155.927 349.82 157.631C348.907 159.336 347.651 160.83 346.133 162.019C344.616 163.209 342.869 164.066 341.004 164.538C339.14 165.01 337.198 165.086 335.303 164.761C334.923 164.703 334.573 164.622 334.179 164.526C332.015 163.981 330.014 162.917 328.345 161.425C327.096 160.23 325.463 159.526 323.743 159.441L323.481 159.441C322.538 159.439 321.597 159.533 320.673 159.72C319.084 160.057 317.658 160.935 316.636 162.207C315.613 163.478 315.056 165.065 315.057 166.701L315.057 196.831C315.065 196.877 315.065 196.924 315.057 196.971C315.057 196.971 315.057 197.022 315.057 197.037C315.074 197.631 315.175 198.22 315.356 198.786C315.751 200.095 316.546 201.246 317.627 202.073C318.709 202.901 320.022 203.363 321.38 203.393C321.438 203.401 321.497 203.401 321.555 203.393L351.464 203.393C353.087 203.392 354.661 203.952 355.923 204.981C357.184 206.01 358.056 207.445 358.392 209.045C358.58 209.978 358.673 210.929 358.669 211.881L358.669 212.138C358.579 213.882 357.876 215.536 356.686 216.805C355.189 218.477 354.127 220.497 353.593 222.684C353.052 224.861 353.039 227.138 353.556 229.321C354.073 231.504 355.105 233.53 356.564 235.226C358.023 236.922 359.867 238.239 361.938 239.064C364.01 239.889 366.248 240.2 368.464 239.968C370.337 239.754 372.148 239.16 373.788 238.223C375.427 237.286 376.862 236.024 378.006 234.514C379.15 233.004 379.979 231.277 380.443 229.436C380.908 227.595 380.998 225.678 380.709 223.801C380.643 223.426 380.57 223.066 380.475 222.676C379.934 220.496 378.878 218.479 377.398 216.797C376.202 215.535 375.498 213.881 375.414 212.138L375.414 211.874C375.413 210.921 375.508 209.971 375.699 209.037C376.034 207.437 376.905 206.001 378.167 204.972C379.429 203.943 381.004 203.383 382.627 203.386L412.528 203.386C412.621 203.393 412.713 203.393 412.805 203.386C414.448 203.313 416.002 202.617 417.157 201.438C418.311 200.26 418.982 198.685 419.034 197.029C419.026 196.961 419.026 196.892 419.034 196.824L419.034 166.694C419.037 165.058 418.481 163.471 417.46 162.2C416.438 160.929 415.014 160.05 413.425 159.713C412.498 159.526 411.555 159.432 410.61 159.434L410.348 159.434C408.628 159.52 406.995 160.224 405.746 161.418C404.079 162.912 402.077 163.976 399.911 164.519C399.539 164.614 399.182 164.695 398.796 164.754C396.765 165.092 394.685 164.969 392.707 164.396C390.73 163.823 388.903 162.812 387.361 161.439C385.819 160.065 384.6 158.363 383.793 156.456C382.986 154.548 382.61 152.483 382.694 150.411C382.777 148.339 383.318 146.312 384.276 144.477C385.234 142.641 386.586 141.044 388.233 139.801C389.881 138.558 391.782 137.701 393.8 137.291C395.817 136.881 397.9 136.929 399.897 137.431C402.065 137.973 404.069 139.043 405.731 140.547C406.989 141.749 408.631 142.461 410.362 142.554L410.61 142.554C411.556 142.551 412.5 142.45 413.425 142.252C415.014 141.922 416.441 141.047 417.463 139.777C418.485 138.508 419.04 136.921 419.034 135.286L419.034 105.112C419.026 105.046 419.026 104.979 419.034 104.913C419.025 104.326 418.926 103.744 418.742 103.186C418.355 101.893 417.578 100.753 416.52 99.9235C415.462 99.0941 414.174 98.6165 412.835 98.5568L382.634 98.5568C381.01 98.5596 379.434 97.9985 378.172 96.9679C376.91 95.9373 376.039 94.5001 375.706 92.8983C375.515 91.9676 375.42 91.0195 375.421 90.0691L375.421 89.8045C375.509 88.0704 376.21 86.4253 377.398 85.1675C378.878 83.486 379.934 81.4692 380.475 79.2885C380.57 78.9137 380.643 78.5537 380.709 78.1568C381.025 76.2511 380.945 74.2999 380.474 72.4268C380.003 70.5537 379.152 68.7995 377.974 67.2752C376.795 65.7508 375.316 64.4894 373.629 63.5709C371.942 62.6524 370.084 62.0968 368.172 61.9391C366.261 61.7814 364.338 62.0251 362.526 62.6549C360.713 63.2846 359.049 64.2867 357.641 65.5977C356.232 66.9086 355.108 68.4998 354.341 70.2708C353.575 72.0418 353.181 73.9538 353.185 75.886L353.185 75.9007Z" fill="#FFC00E" stroke="#C99403" stroke-width="2" stroke-miterlimit="10"/>
<path d="M39.1645 -30.4599C39.1627 -29.318 39.2998 -28.1803 39.5729 -27.0721C40.1077 -24.8858 41.1698 -22.8664 42.6652 -21.1931C43.8555 -19.9245 44.5587 -18.2703 44.6489 -16.5267L44.6489 -16.2768C44.6531 -15.3266 44.5602 -14.3786 44.3717 -13.4476C44.0369 -11.8464 43.1655 -10.4101 41.9039 -9.3797C40.6423 -8.34932 39.0673 -7.78769 37.4434 -7.78912L7.22111 -7.78912C5.88098 -7.72599 4.59291 -7.24734 3.53294 -6.41868C2.47297 -5.59001 1.69284 -4.45172 1.29919 -3.15939C1.10896 -2.60343 1.00804 -2.02047 1.00019 -1.43246L1.00019 -1.38838C1.00738 -1.33718 1.00738 -1.28523 1.00019 -1.23403L1.00019 28.9324C0.995303 30.568 1.55169 32.1551 2.57511 33.4247C3.59853 34.6943 5.02605 35.5684 6.61583 35.899C7.53888 36.0971 8.47985 36.1981 9.42362 36.2003L9.6716 36.2003C11.4029 36.1075 13.0447 35.3962 14.3026 34.1941C15.967 32.6928 17.9697 31.6232 20.137 31.0782C21.2377 30.8088 22.3664 30.6731 23.4991 30.674C25.4216 30.6589 27.3263 31.0471 29.0919 31.8139C30.8574 32.5807 32.4454 33.7093 33.7546 35.1279C35.0639 36.5466 36.0658 38.2243 36.6967 40.0543C37.3276 41.8842 37.5737 43.8265 37.4193 45.7575C37.2649 47.6885 36.7133 49.566 35.7998 51.2706C34.8863 52.9752 33.6307 54.4696 32.1129 55.6588C30.5952 56.8479 28.8484 57.7058 26.9837 58.1778C25.1191 58.6499 23.1774 58.7258 21.2821 58.4007C20.9028 58.3419 20.5528 58.2611 20.159 58.1656C17.9948 57.6202 15.9933 56.5563 14.3245 55.0644C13.0755 53.8696 11.4428 53.1656 9.72265 53.0802L9.46007 53.0802C8.51725 53.0789 7.57666 53.1724 6.65228 53.3595C5.06321 53.6969 3.63773 54.5749 2.61518 55.8461C1.59262 57.1174 1.03524 58.7044 1.03666 60.3407L1.03666 90.4704C1.04427 90.5167 1.04427 90.5638 1.03666 90.6101C1.03666 90.6101 1.03666 90.6615 1.03666 90.6762C1.0536 91.2706 1.1543 91.8594 1.33569 92.4252C1.73018 93.7347 2.52499 94.8852 3.60675 95.7126C4.68851 96.54 6.00191 97.002 7.35969 97.0328C7.41781 97.0399 7.47662 97.0399 7.53475 97.0328L37.4434 97.0328C39.0663 97.0311 40.6405 97.5917 41.902 98.6206C43.1635 99.6495 44.0354 101.084 44.3717 102.684C44.5599 103.618 44.6528 104.568 44.6489 105.521L44.6489 105.778C44.5587 107.521 43.8555 109.176 42.6652 110.444C41.1686 112.117 40.1062 114.136 39.573 116.323C39.0311 118.5 39.0182 120.777 39.5353 122.961C40.0524 125.144 41.0843 127.169 42.5435 128.865C44.0027 130.561 45.8461 131.878 47.9176 132.703C49.9891 133.529 52.2276 133.839 54.4434 133.607C56.3165 133.393 58.1274 132.8 59.7672 131.862C61.407 130.925 62.8419 129.664 63.9856 128.154C65.1293 126.643 65.9583 124.916 66.4227 123.075C66.8872 121.234 66.9776 119.317 66.6884 117.44C66.6227 117.065 66.5498 116.705 66.455 116.316C65.9137 114.135 64.8579 112.118 63.3773 110.437C62.182 109.175 61.4778 107.521 61.3936 105.778L61.3936 105.513C61.3921 104.56 61.4874 103.61 61.6781 102.677C62.0131 101.076 62.8847 99.6407 64.1465 98.6116C65.4082 97.5824 66.9831 97.0224 68.6064 97.0255L98.5078 97.0255C98.6 97.0327 98.6926 97.0327 98.7849 97.0255C100.427 96.9522 101.981 96.2566 103.136 95.0779C104.291 93.8992 104.961 92.3244 105.013 90.6689C105.006 90.6005 105.006 90.5315 105.013 90.4631L105.013 60.3334C105.016 58.6977 104.46 57.1108 103.439 55.8394C102.418 54.5681 100.993 53.6897 99.4048 53.3521C98.478 53.165 97.5349 53.0715 96.5897 53.0729L96.3271 53.0729C94.6073 53.1596 92.975 53.8633 91.7253 55.057C90.0582 56.5513 88.0561 57.6155 85.8908 58.1582C85.5189 58.2537 85.1615 58.3346 84.775 58.3934C82.7444 58.7311 80.6647 58.6088 78.6869 58.0354C76.709 57.462 74.8828 56.4519 73.3408 55.0784C71.7989 53.7049 70.5799 52.0025 69.7725 50.095C68.9651 48.1875 68.5895 46.1227 68.673 44.0506C68.7565 41.9785 69.297 39.9512 70.2553 38.116C71.2136 36.2807 72.5656 34.6836 74.213 33.4406C75.8604 32.1977 77.7619 31.3401 79.7793 30.9302C81.7968 30.5203 83.8795 30.5683 85.8763 31.0709C88.0449 31.6125 90.0484 32.6825 91.7107 34.1867C92.9686 35.3889 94.6105 36.1001 96.3417 36.1929L96.5897 36.1929C97.5359 36.1907 98.4793 36.0898 99.4048 35.8916C100.994 35.5609 102.42 34.6865 103.443 33.4167C104.465 32.147 105.02 30.56 105.013 28.925L105.013 -1.24875C105.006 -1.3147 105.006 -1.3812 105.013 -1.44714C105.004 -2.03442 104.906 -2.61687 104.721 -3.1741C104.334 -4.46748 103.558 -5.60768 102.5 -6.43707C101.441 -7.26646 100.153 -7.74411 98.8141 -7.80383L68.6137 -7.80383C66.9894 -7.80104 65.4137 -8.3621 64.1518 -9.3927C62.8899 -10.4233 62.0189 -11.8605 61.6854 -13.4623C61.4944 -14.393 61.399 -15.3411 61.4009 -16.2915L61.4009 -16.5561C61.4883 -18.2902 62.1894 -19.9353 63.3773 -21.1931C64.8579 -22.8746 65.9137 -24.8914 66.455 -27.0721C66.5498 -27.4469 66.6227 -27.8069 66.6884 -28.2037C67.0045 -30.1095 66.9246 -32.0607 66.4538 -33.9338C65.9829 -35.8069 65.1314 -37.5611 63.9531 -39.0854C62.7747 -40.6098 61.2952 -41.8712 59.6081 -42.7897C57.921 -43.7082 56.0632 -44.2638 54.152 -44.4215C52.2408 -44.5792 50.3179 -44.3355 48.5051 -43.7057C46.6922 -43.076 45.0288 -42.0739 43.62 -40.7629C42.2113 -39.452 41.0879 -37.8608 40.321 -36.0898C39.5541 -34.3188 39.1603 -32.4068 39.1645 -30.4746L39.1645 -30.4599Z" fill="#FFC00E" stroke="#C99403" stroke-width="2" stroke-miterlimit="10"/>
<path d="M144.036 -134.992C144.034 -133.85 144.171 -132.712 144.444 -131.604C144.979 -129.418 146.041 -127.398 147.536 -125.725C148.727 -124.456 149.43 -122.802 149.52 -121.059L149.52 -120.809C149.524 -119.859 149.431 -118.911 149.243 -117.98C148.908 -116.378 148.037 -114.942 146.775 -113.912C145.513 -112.881 143.938 -112.32 142.314 -112.321L112.092 -112.321C110.752 -112.258 109.464 -111.779 108.404 -110.951C107.344 -110.122 106.564 -108.984 106.17 -107.691C105.98 -107.135 105.879 -106.552 105.871 -105.964L105.871 -105.92C105.878 -105.869 105.878 -105.817 105.871 -105.766L105.871 -75.5996C105.866 -73.9639 106.423 -72.3769 107.446 -71.1073C108.47 -69.8376 109.897 -68.9636 111.487 -68.633C112.41 -68.4349 113.351 -68.3339 114.295 -68.3317L114.543 -68.3317C116.274 -68.4245 117.916 -69.1358 119.174 -70.3379C120.838 -71.8392 122.841 -72.9088 125.008 -73.4538C126.109 -73.7232 127.238 -73.8589 128.37 -73.858C130.293 -73.8731 132.197 -73.4849 133.963 -72.7181C135.729 -71.9513 137.316 -70.8227 138.626 -69.4041C139.935 -67.9854 140.937 -66.3077 141.568 -64.4777C142.199 -62.6477 142.445 -60.7055 142.29 -58.7745C142.136 -56.8434 141.584 -54.966 140.671 -53.2614C139.757 -51.5568 138.502 -50.0624 136.984 -48.8732C135.466 -47.6841 133.719 -46.8262 131.855 -46.3541C129.99 -45.8821 128.048 -45.8062 126.153 -46.1313C125.774 -46.1901 125.424 -46.2709 125.03 -46.3664C122.866 -46.9118 120.864 -47.9757 119.196 -49.4676C117.947 -50.6624 116.314 -51.3664 114.594 -51.4518L114.331 -51.4518C113.388 -51.4531 112.448 -51.3596 111.523 -51.1725C109.934 -50.8351 108.509 -49.9571 107.486 -48.6859C106.464 -47.4146 105.906 -45.8276 105.908 -44.1912L105.908 -14.0615C105.915 -14.0153 105.915 -13.9681 105.908 -13.9219C105.908 -13.9219 105.908 -13.8705 105.908 -13.8558C105.925 -13.2614 106.025 -12.6725 106.207 -12.1068C106.601 -10.7973 107.396 -9.64681 108.478 -8.8194C109.56 -7.99199 110.873 -7.52994 112.231 -7.49916C112.289 -7.49208 112.348 -7.49208 112.406 -7.49916L142.314 -7.49916C143.937 -7.50093 145.512 -6.94032 146.773 -5.91141C148.035 -4.88249 148.907 -3.44785 149.243 -1.848C149.431 -0.914468 149.524 0.0360496 149.52 0.988635L149.52 1.24582C149.43 2.98935 148.727 4.64358 147.536 5.91223C146.04 7.58462 144.977 9.60437 144.444 11.7912C143.902 13.9684 143.889 16.2452 144.406 18.4285C144.923 20.6119 145.955 22.6373 147.415 24.3334C148.874 26.0294 150.717 27.346 152.789 28.1714C154.86 28.9969 157.099 29.307 159.314 29.0754C161.188 28.8611 162.999 28.2676 164.638 27.3304C166.278 26.3932 167.713 25.1316 168.857 23.6216C170 22.1115 170.829 20.3841 171.294 18.543C171.758 16.702 171.849 14.7853 171.559 12.9082C171.494 12.5334 171.421 12.1734 171.326 11.7839C170.785 9.60317 169.729 7.58637 168.248 5.90492C167.053 4.64252 166.349 2.98857 166.265 1.24582L166.265 0.981277C166.263 0.0284424 166.359 -0.922035 166.549 -1.85531C166.884 -3.45579 167.756 -4.89128 169.018 -5.92042C170.279 -6.94956 171.854 -7.50962 173.478 -7.50647L203.379 -7.50647C203.471 -7.49933 203.564 -7.49933 203.656 -7.50647C205.298 -7.57976 206.852 -8.27542 208.007 -9.45412C209.162 -10.6328 209.833 -12.2076 209.884 -13.8631C209.877 -13.9315 209.877 -14.0005 209.884 -14.0689L209.884 -44.1986C209.887 -45.8343 209.332 -47.4212 208.31 -48.6926C207.289 -49.9639 205.864 -50.8423 204.276 -51.1799C203.349 -51.3669 202.406 -51.4604 201.461 -51.4591L201.198 -51.4591C199.478 -51.3724 197.846 -50.6687 196.596 -49.475C194.929 -47.9807 192.927 -46.9164 190.762 -46.3738C190.39 -46.2783 190.033 -46.1974 189.646 -46.1386C187.616 -45.8009 185.536 -45.9232 183.558 -46.4966C181.58 -47.07 179.754 -48.0801 178.212 -49.4536C176.67 -50.8271 175.451 -52.5294 174.644 -54.4369C173.836 -56.3445 173.461 -58.4093 173.544 -60.4814C173.628 -62.5534 174.168 -64.5807 175.126 -66.416C176.085 -68.2513 177.437 -69.8484 179.084 -71.0913C180.731 -72.3343 182.633 -73.1919 184.65 -73.6018C186.668 -74.0117 188.751 -73.9636 190.747 -73.4611C192.916 -72.9194 194.919 -71.8495 196.582 -70.3453C197.84 -69.1431 199.482 -68.4319 201.213 -68.3391L201.461 -68.3391C202.407 -68.3413 203.35 -68.4422 204.276 -68.6404C205.865 -68.9711 207.292 -69.8455 208.314 -71.1152C209.336 -72.385 209.891 -73.972 209.884 -75.6069L209.884 -105.781C209.877 -105.847 209.877 -105.913 209.884 -105.979C209.875 -106.566 209.777 -107.149 209.592 -107.706C209.205 -108.999 208.429 -110.14 207.371 -110.969C206.312 -111.798 205.025 -112.276 203.685 -112.336L173.485 -112.336C171.86 -112.333 170.285 -112.894 169.023 -113.925C167.761 -114.955 166.89 -116.392 166.556 -117.994C166.365 -118.925 166.27 -119.873 166.272 -120.824L166.272 -121.088C166.359 -122.822 167.061 -124.467 168.248 -125.725C169.729 -127.407 170.785 -129.423 171.326 -131.604C171.421 -131.979 171.494 -132.339 171.559 -132.736C171.876 -134.642 171.796 -136.593 171.325 -138.466C170.854 -140.339 170.003 -142.093 168.824 -143.617C167.646 -145.142 166.166 -146.403 164.479 -147.322C162.792 -148.24 160.934 -148.796 159.023 -148.953C157.112 -149.111 155.189 -148.867 153.376 -148.238C151.563 -147.608 149.9 -146.606 148.491 -145.295C147.082 -143.984 145.959 -142.393 145.192 -140.622C144.425 -138.851 144.031 -136.939 144.036 -135.007L144.036 -134.992Z" fill="#FFC00E" stroke="#C99403" stroke-width="2" stroke-miterlimit="10"/>
<path d="M262.987 135.115C262.498 135.145 262.008 135.145 261.52 135.115C261.285 135.115 261.05 135.115 260.786 135.07C260.346 135.019 259.913 134.96 259.473 134.864C259.466 134.861 259.458 134.859 259.451 134.859C259.443 134.859 259.436 134.861 259.429 134.864C259.199 134.834 258.973 134.782 258.754 134.71C258.361 134.617 257.974 134.501 257.594 134.364C256.987 134.151 256.398 133.888 255.834 133.576C255.638 133.486 255.45 133.383 255.269 133.267C253.353 132.165 251.726 130.62 250.524 128.761C249.322 126.902 248.579 124.782 248.357 122.578C248.313 122.114 248.277 121.643 248.277 121.157C248.277 120.84 248.277 120.524 248.277 120.229C248.277 120.052 248.277 119.868 248.335 119.677C248.351 119.392 248.387 119.109 248.445 118.83C248.491 118.47 248.56 118.114 248.651 117.763C248.788 117.21 248.959 116.667 249.164 116.136C249.766 114.572 250.646 113.13 251.762 111.881C252.222 111.38 252.621 110.827 252.95 110.232C253.161 109.862 253.336 109.472 253.471 109.069C253.683 108.46 253.797 107.821 253.809 107.177L253.809 106.904C253.813 105.952 253.719 105.003 253.53 104.07C253.241 102.664 252.532 101.38 251.497 100.389C250.17 99.1203 248.408 98.4113 246.574 98.4086L216.449 98.4086C216.229 98.4086 216.009 98.4086 215.796 98.4086C215.36 98.4542 214.93 98.5431 214.512 98.6737C213.708 98.9231 212.96 99.3283 212.311 99.8663L211.856 100.286C211.703 100.43 211.563 100.588 211.438 100.757C210.623 101.745 210.113 102.95 209.97 104.224L209.97 104.364C209.962 104.484 209.962 104.605 209.97 104.725C209.963 104.794 209.963 104.863 209.97 104.931L209.97 135.225C209.977 136.863 209.419 138.453 208.39 139.725C207.362 140.997 205.927 141.873 204.328 142.204C203.397 142.402 202.448 142.503 201.496 142.506L201.247 142.506C199.506 142.409 197.856 141.697 196.588 140.496C194.917 138.987 192.901 137.915 190.718 137.375C189.614 137.102 188.481 136.964 187.343 136.962C185.396 136.924 183.462 137.295 181.666 138.052C179.87 138.809 178.253 139.935 176.917 141.358C175.582 142.781 174.559 144.469 173.913 146.313C173.268 148.157 173.015 150.116 173.17 152.064C173.326 154.013 173.887 155.906 174.817 157.624C175.746 159.341 177.024 160.844 178.569 162.035C180.113 163.227 181.888 164.08 183.781 164.541C185.674 165.001 187.642 165.059 189.559 164.709C189.933 164.643 190.293 164.569 190.681 164.474C192.857 163.924 194.87 162.859 196.551 161.367C197.806 160.168 199.45 159.463 201.181 159.379L201.445 159.379C202.396 159.375 203.345 159.468 204.277 159.659C205.875 159.997 207.308 160.877 208.335 162.151C209.363 163.424 209.922 165.014 209.919 166.653L209.919 196.836C209.912 196.905 209.912 196.974 209.919 197.042C209.911 197.162 209.911 197.283 209.919 197.403L209.919 197.543C210.061 198.817 210.571 200.022 211.386 201.01C211.529 201.195 211.688 201.365 211.863 201.518C212.01 201.658 212.164 201.813 212.318 201.938C212.318 201.938 212.318 201.938 212.37 201.982C212.846 202.373 213.377 202.691 213.947 202.924C214.136 203.02 214.335 203.095 214.541 203.145C214.959 203.276 215.39 203.365 215.825 203.41C216.038 203.41 216.258 203.41 216.478 203.41L246.589 203.41C248.222 203.414 249.806 202.852 251.073 201.819C252.34 200.786 253.213 199.346 253.544 197.742C253.735 196.809 253.828 195.859 253.823 194.907L253.823 194.642C253.812 193.995 253.698 193.354 253.486 192.743C253.129 191.721 252.57 190.782 251.842 189.982C250.541 188.529 249.565 186.811 248.981 184.947C248.875 184.672 248.792 184.389 248.731 184.1C248.651 183.775 248.59 183.446 248.548 183.114C248.49 182.835 248.453 182.552 248.438 182.267C248.438 182.076 248.394 181.892 248.379 181.715C248.379 181.421 248.379 181.104 248.379 180.787C248.379 180.302 248.379 179.83 248.46 179.367C248.681 177.163 249.424 175.044 250.626 173.186C251.828 171.328 253.455 169.785 255.371 168.685C255.552 168.566 255.741 168.461 255.936 168.368C256.5 168.056 257.089 167.793 257.697 167.58C258.076 167.442 258.463 167.329 258.856 167.242C259.075 167.163 259.301 167.109 259.531 167.08C259.538 167.083 259.546 167.085 259.553 167.085C259.561 167.085 259.569 167.083 259.575 167.08C260.016 166.984 260.449 166.925 260.889 166.874C261.124 166.874 261.358 166.829 261.622 166.829C262.111 166.799 262.601 166.799 263.09 166.829C263.325 166.829 263.559 166.829 263.824 166.874C264.264 166.925 264.697 166.984 265.137 167.08C265.144 167.076 265.151 167.075 265.159 167.075C265.167 167.075 265.174 167.076 265.181 167.08C265.411 167.109 265.637 167.163 265.856 167.242C266.078 167.285 266.297 167.346 266.509 167.426C266.733 167.486 266.954 167.56 267.169 167.647C267.722 167.851 268.26 168.097 268.776 168.383C268.971 168.475 269.16 168.581 269.341 168.699C271.257 169.799 272.884 171.342 274.086 173.2C275.288 175.058 276.031 177.177 276.252 179.381C276.329 180.162 276.344 180.947 276.296 181.73C276.296 181.906 276.296 182.09 276.238 182.282C276.233 182.502 276.206 182.722 276.157 182.937C276.165 182.983 276.165 183.031 276.157 183.077C276.161 183.085 276.163 183.094 276.163 183.103C276.163 183.112 276.161 183.12 276.157 183.128C276.111 183.488 276.043 183.845 275.952 184.196C275.891 184.484 275.808 184.768 275.702 185.043C275.118 186.911 274.142 188.633 272.841 190.093C272.114 190.887 271.554 191.821 271.197 192.839C270.986 193.45 270.87 194.091 270.852 194.738L270.852 195.003C270.852 195.489 270.889 195.975 270.918 196.475C270.948 196.976 271.043 197.418 271.138 197.867C271.43 199.272 272.138 200.555 273.171 201.548C274.502 202.819 276.27 203.528 278.109 203.528L308.19 203.528C308.425 203.528 308.645 203.528 308.858 203.528C309.293 203.482 309.724 203.394 310.142 203.263C310.345 203.203 310.543 203.129 310.736 203.042C311.131 202.879 311.507 202.674 311.859 202.431C312.583 201.944 313.201 201.316 313.678 200.583L313.957 200.112C314.052 199.921 314.148 199.737 314.221 199.545C314.471 198.956 314.634 198.334 314.705 197.698L314.705 197.558C314.713 197.438 314.713 197.317 314.705 197.197C314.705 197.197 314.705 197.145 314.705 197.131C314.712 197.084 314.712 197.037 314.705 196.991L314.705 166.807C314.702 165.169 315.261 163.579 316.289 162.305C317.316 161.032 318.75 160.152 320.347 159.814C321.279 159.622 322.228 159.528 323.18 159.534L323.444 159.534C325.173 159.616 326.814 160.322 328.066 161.522C329.749 163.01 331.761 164.075 333.935 164.628C334.317 164.724 334.669 164.798 335.065 164.864C337.108 165.202 339.2 165.08 341.19 164.505C343.18 163.931 345.017 162.919 346.568 161.543C348.12 160.167 349.346 158.462 350.158 156.551C350.971 154.64 351.348 152.571 351.264 150.495C351.18 148.42 350.637 146.389 349.673 144.55C348.708 142.712 347.348 141.112 345.691 139.867C344.034 138.621 342.121 137.762 340.091 137.352C338.062 136.941 335.966 136.989 333.957 137.493C331.775 138.032 329.759 139.105 328.088 140.614C326.82 141.814 325.17 142.526 323.429 142.624L323.18 142.624C322.228 142.622 321.278 142.521 320.347 142.322C318.749 141.991 317.314 141.115 316.285 139.843C315.257 138.571 314.699 136.981 314.705 135.343L314.705 105.115C314.713 105.064 314.713 105.012 314.705 104.961L314.705 104.909C314.713 104.789 314.713 104.669 314.705 104.548L314.705 104.409C314.634 103.772 314.471 103.15 314.221 102.561C314.148 102.369 314.052 102.185 313.957 101.994L313.678 101.523C313.141 100.705 312.431 100.017 311.597 99.5076C310.764 98.9984 309.828 98.6809 308.858 98.578C308.645 98.578 308.425 98.578 308.19 98.578L278.109 98.578C276.27 98.5777 274.502 99.2867 273.171 100.558C272.134 101.548 271.425 102.832 271.138 104.239C271.043 104.71 270.984 105.159 270.918 105.631C270.852 106.102 270.852 106.588 270.852 107.103L270.852 107.375C270.871 108.02 270.987 108.658 271.197 109.267C271.554 110.285 272.114 111.219 272.841 112.013C273.953 113.27 274.833 114.716 275.438 116.283C275.64 116.815 275.811 117.358 275.952 117.91C276.042 118.261 276.111 118.618 276.157 118.978C276.163 118.994 276.163 119.012 276.157 119.029C276.165 119.075 276.165 119.123 276.157 119.169C276.206 119.384 276.233 119.604 276.238 119.824C276.238 120.016 276.282 120.2 276.296 120.376C276.344 121.159 276.329 121.944 276.252 122.725C276.03 124.929 275.287 127.049 274.085 128.908C272.883 130.767 271.257 132.312 269.341 133.414C269.16 133.53 268.971 133.633 268.776 133.723C268.26 134.009 267.722 134.255 267.169 134.459C266.954 134.546 266.733 134.62 266.509 134.68C266.296 134.759 266.078 134.822 265.856 134.872C265.636 134.944 265.41 134.996 265.181 135.026C265.174 135.03 265.167 135.031 265.159 135.031C265.151 135.031 265.144 135.03 265.137 135.026C264.697 135.122 264.264 135.181 263.824 135.232C263.457 135.1 263.222 135.1 262.987 135.115Z" fill="#C9DA2A" stroke="#9EAC20" stroke-width="2" stroke-miterlimit="10"/>
<path d="M143.793 75.9007C143.791 77.0426 143.928 78.1803 144.201 79.2885C144.736 81.4748 145.798 83.4942 147.294 85.1675C148.484 86.4361 149.187 88.0903 149.277 89.8339L149.277 90.0838C149.282 91.034 149.189 91.982 149 92.913C148.665 94.5142 147.794 95.9505 146.532 96.9809C145.271 98.0113 143.696 98.5729 142.072 98.5715L111.85 98.5715C110.509 98.6346 109.221 99.1133 108.161 99.9419C107.101 100.771 106.321 101.909 105.928 103.201C105.737 103.757 105.636 104.34 105.629 104.928L105.629 104.972C105.636 105.023 105.636 105.075 105.629 105.127L105.629 135.293C105.624 136.929 106.18 138.516 107.204 139.785C108.227 141.055 109.654 141.929 111.244 142.26C112.167 142.458 113.108 142.559 114.052 142.561L114.3 142.561C116.031 142.468 117.673 141.757 118.931 140.555C120.595 139.053 122.598 137.984 124.765 137.439C125.866 137.169 126.995 137.034 128.128 137.035C130.05 137.02 131.955 137.408 133.72 138.174C135.486 138.941 137.074 140.07 138.383 141.489C139.692 142.907 140.694 144.585 141.325 146.415C141.956 148.245 142.202 150.187 142.048 152.118C141.893 154.049 141.342 155.927 140.428 157.631C139.515 159.336 138.259 160.83 136.741 162.019C135.224 163.209 133.477 164.066 131.612 164.538C129.748 165.01 127.806 165.086 125.91 164.761C125.531 164.703 125.181 164.622 124.787 164.526C122.623 163.981 120.622 162.917 118.953 161.425C117.704 160.23 116.071 159.526 114.351 159.441L114.088 159.441C113.146 159.439 112.205 159.533 111.281 159.72C109.692 160.057 108.266 160.935 107.244 162.207C106.221 163.478 105.664 165.065 105.665 166.701L105.665 196.831C105.673 196.877 105.673 196.924 105.665 196.971C105.665 196.971 105.665 197.022 105.665 197.037C105.682 197.631 105.783 198.22 105.964 198.786C106.359 200.095 107.153 201.246 108.235 202.073C109.317 202.901 110.63 203.363 111.988 203.393C112.046 203.401 112.105 203.401 112.163 203.393L142.072 203.393C143.695 203.392 145.269 203.952 146.53 204.981C147.792 206.01 148.664 207.445 149 209.045C149.188 209.978 149.281 210.929 149.277 211.881L149.277 212.138C149.187 213.882 148.484 215.536 147.294 216.805C145.797 218.477 144.735 220.497 144.201 222.684C143.66 224.861 143.647 227.138 144.164 229.321C144.681 231.504 145.713 233.53 147.172 235.226C148.631 236.922 150.475 238.239 152.546 239.064C154.618 239.889 156.856 240.2 159.072 239.968C160.945 239.754 162.756 239.16 164.396 238.223C166.035 237.286 167.47 236.024 168.614 234.514C169.758 233.004 170.587 231.277 171.051 229.436C171.516 227.595 171.606 225.678 171.317 223.801C171.251 223.426 171.178 223.066 171.083 222.676C170.542 220.496 169.486 218.479 168.006 216.797C166.81 215.535 166.106 213.881 166.022 212.138L166.022 211.874C166.021 210.921 166.116 209.971 166.306 209.037C166.642 207.437 167.513 206.001 168.775 204.972C170.037 203.943 171.612 203.383 173.235 203.386L203.136 203.386C203.228 203.393 203.321 203.393 203.413 203.386C205.056 203.313 206.61 202.617 207.765 201.438C208.919 200.26 209.59 198.685 209.642 197.029C209.634 196.961 209.634 196.892 209.642 196.824L209.642 166.694C209.645 165.058 209.089 163.471 208.067 162.2C207.046 160.929 205.622 160.05 204.033 159.713C203.106 159.526 202.163 159.432 201.218 159.434L200.956 159.434C199.236 159.52 197.603 160.224 196.354 161.418C194.687 162.912 192.684 163.976 190.519 164.519C190.147 164.614 189.79 164.695 189.403 164.754C187.373 165.092 185.293 164.969 183.315 164.396C181.337 163.823 179.511 162.812 177.969 161.439C176.427 160.065 175.208 158.363 174.401 156.456C173.593 154.548 173.218 152.483 173.301 150.411C173.385 148.339 173.925 146.312 174.884 144.477C175.842 142.641 177.194 141.044 178.841 139.801C180.489 138.558 182.39 137.701 184.408 137.291C186.425 136.881 188.508 136.929 190.505 137.431C192.673 137.973 194.677 139.043 196.339 140.547C197.597 141.749 199.239 142.461 200.97 142.554L201.218 142.554C202.164 142.551 203.108 142.45 204.033 142.252C205.622 141.922 207.049 141.047 208.071 139.777C209.093 138.508 209.648 136.921 209.642 135.286L209.642 105.112C209.634 105.046 209.634 104.979 209.642 104.913C209.632 104.326 209.534 103.744 209.35 103.186C208.963 101.893 208.186 100.753 207.128 99.9235C206.07 99.0941 204.782 98.6165 203.442 98.5568L173.242 98.5568C171.618 98.5596 170.042 97.9985 168.78 96.9679C167.518 95.9373 166.647 94.5001 166.314 92.8983C166.123 91.9676 166.027 91.0195 166.029 90.0691L166.029 89.8045C166.117 88.0704 166.818 86.4253 168.006 85.1675C169.486 83.486 170.542 81.4692 171.083 79.2885C171.178 78.9137 171.251 78.5537 171.317 78.1568C171.633 76.2511 171.553 74.2999 171.082 72.4268C170.611 70.5537 169.76 68.7995 168.581 67.2752C167.403 65.7508 165.924 64.4894 164.237 63.5709C162.549 62.6524 160.692 62.0968 158.78 61.9391C156.869 61.7814 154.946 62.0251 153.133 62.6549C151.321 63.2846 149.657 64.2867 148.248 65.5977C146.84 66.9086 145.716 68.4998 144.949 70.2708C144.182 72.0418 143.789 73.9538 143.793 75.886L143.793 75.9007Z" fill="#01B8C6" stroke="#01858E" stroke-width="2" stroke-miterlimit="10"/>
<path d="M353.713 -134.731C353.711 -133.589 353.848 -132.451 354.121 -131.343C354.656 -129.157 355.718 -127.137 357.214 -125.464C358.404 -124.195 359.107 -122.541 359.197 -120.797L359.197 -120.548C359.201 -119.597 359.109 -118.649 358.92 -117.718C358.585 -116.117 357.714 -114.681 356.452 -113.65C355.191 -112.62 353.616 -112.058 351.992 -112.06L321.769 -112.06C320.429 -111.997 319.141 -111.518 318.081 -110.689C317.021 -109.861 316.241 -108.722 315.848 -107.43C315.657 -106.874 315.556 -106.291 315.549 -105.703L315.549 -105.659C315.556 -105.608 315.556 -105.556 315.549 -105.505L315.549 -75.3384C315.544 -73.7027 316.1 -72.1156 317.123 -70.846C318.147 -69.5764 319.574 -68.7023 321.164 -68.3718C322.087 -68.1737 323.028 -68.0727 323.972 -68.0705L324.22 -68.0705C325.951 -68.1633 327.593 -68.8745 328.851 -70.0767C330.515 -71.578 332.518 -72.6475 334.685 -73.1926C335.786 -73.462 336.915 -73.5977 338.047 -73.5967C339.97 -73.6118 341.875 -73.2237 343.64 -72.4569C345.406 -71.6901 346.994 -70.5615 348.303 -69.1428C349.612 -67.7242 350.614 -66.0465 351.245 -64.2165C351.876 -62.3865 352.122 -60.4442 351.968 -58.5132C351.813 -56.5822 351.262 -54.7047 350.348 -53.0001C349.435 -51.2955 348.179 -49.8011 346.661 -48.612C345.143 -47.4228 343.397 -46.565 341.532 -46.0929C339.667 -45.6209 337.726 -45.5449 335.83 -45.87C335.451 -45.9288 335.101 -46.0097 334.707 -46.1052C332.543 -46.6506 330.542 -47.7145 328.873 -49.2064C327.624 -50.4012 325.991 -51.1052 324.271 -51.1905L324.008 -51.1905C323.066 -51.1919 322.125 -51.0983 321.201 -50.9113C319.612 -50.5739 318.186 -49.6959 317.164 -48.4246C316.141 -47.1534 315.584 -45.5664 315.585 -43.93L315.585 -13.8003C315.593 -13.7541 315.593 -13.7069 315.585 -13.6607C315.585 -13.6607 315.585 -13.6092 315.585 -13.5945C315.602 -13.0002 315.703 -12.4113 315.884 -11.8455C316.279 -10.5361 317.073 -9.38558 318.155 -8.55817C319.237 -7.73076 320.55 -7.26871 321.908 -7.23793C321.966 -7.23085 322.025 -7.23085 322.083 -7.23793L351.992 -7.23793C353.615 -7.2397 355.189 -6.67909 356.45 -5.65018C357.712 -4.62126 358.584 -3.18662 358.92 -1.58677C359.108 -0.653238 359.201 0.29728 359.197 1.24987L359.197 1.50705C359.107 3.25058 358.404 4.90481 357.214 6.17346C355.717 7.84585 354.655 9.8656 354.121 12.0524C353.579 14.2297 353.567 16.5064 354.084 18.6898C354.601 20.8731 355.633 22.8986 357.092 24.5946C358.551 26.2906 360.394 27.6072 362.466 28.4327C364.537 29.2581 366.776 29.5682 368.992 29.3366C370.865 29.1224 372.676 28.5288 374.316 27.5916C375.955 26.6544 377.39 25.3929 378.534 23.8828C379.678 22.3727 380.507 20.6453 380.971 18.8043C381.436 16.9632 381.526 15.0466 381.237 13.1694C381.171 12.7947 381.098 12.4346 381.003 12.0451C380.462 9.8644 379.406 7.8476 377.926 6.16615C376.73 4.90375 376.026 3.2498 375.942 1.50705L375.942 1.24251C375.94 0.289673 376.036 -0.660805 376.226 -1.59408C376.561 -3.19456 377.433 -4.63005 378.695 -5.65919C379.957 -6.68833 381.531 -7.24838 383.155 -7.24524L413.056 -7.24524C413.148 -7.2381 413.241 -7.2381 413.333 -7.24524C414.975 -7.31853 416.53 -8.01419 417.684 -9.19289C418.839 -10.3716 419.51 -11.9463 419.561 -13.6019C419.554 -13.6703 419.554 -13.7393 419.561 -13.8077L419.561 -43.9374C419.565 -45.5731 419.009 -47.1599 417.987 -48.4313C416.966 -49.7027 415.541 -50.581 413.953 -50.9186C413.026 -51.1057 412.083 -51.1992 411.138 -51.1978L410.875 -51.1978C409.156 -51.1112 407.523 -50.4074 406.274 -49.2137C404.607 -47.7194 402.604 -46.6552 400.439 -46.1126C400.067 -46.017 399.71 -45.9362 399.323 -45.8774C397.293 -45.5397 395.213 -45.6619 393.235 -46.2354C391.257 -46.8088 389.431 -47.8189 387.889 -49.1924C386.347 -50.5659 385.128 -52.2682 384.321 -54.1757C383.513 -56.0832 383.138 -58.1481 383.221 -60.2201C383.305 -62.2922 383.845 -64.3195 384.804 -66.1548C385.762 -67.99 387.114 -69.5871 388.761 -70.8301C390.409 -72.0731 392.31 -72.9307 394.328 -73.3406C396.345 -73.7505 398.428 -73.7024 400.425 -73.1999C402.593 -72.6582 404.597 -71.5883 406.259 -70.084C407.517 -68.8819 409.159 -68.1707 410.89 -68.0778L411.138 -68.0778C412.084 -68.08 413.028 -68.181 413.953 -68.3791C415.542 -68.7098 416.969 -69.5843 417.991 -70.854C419.013 -72.1238 419.568 -73.7107 419.561 -75.3457L419.561 -105.52C419.554 -105.585 419.554 -105.652 419.561 -105.718C419.552 -106.305 419.454 -106.888 419.27 -107.445C418.883 -108.738 418.106 -109.878 417.048 -110.708C415.99 -111.537 414.702 -112.015 413.362 -112.075L383.162 -112.075C381.538 -112.072 379.962 -112.633 378.7 -113.663C377.438 -114.694 376.567 -116.131 376.234 -117.733C376.043 -118.664 375.947 -119.612 375.949 -120.562L375.949 -120.827C376.037 -122.561 376.738 -124.206 377.926 -125.464C379.406 -127.145 380.462 -129.162 381.003 -131.343C381.098 -131.718 381.171 -132.078 381.237 -132.475C381.553 -134.38 381.473 -136.331 381.002 -138.205C380.531 -140.078 379.68 -141.832 378.501 -143.356C377.323 -144.881 375.844 -146.142 374.156 -147.06C372.469 -147.979 370.611 -148.535 368.7 -148.692C366.789 -148.85 364.866 -148.606 363.053 -147.976C361.241 -147.347 359.577 -146.345 358.168 -145.034C356.76 -143.723 355.636 -142.132 354.869 -140.361C354.102 -138.59 353.709 -136.678 353.713 -134.745L353.713 -134.731Z" fill="#01B8C6" stroke="#01858E" stroke-width="2" stroke-miterlimit="10"/>
<path d="M353.713 286.858C353.711 288 353.848 289.138 354.121 290.246C354.656 292.432 355.718 294.452 357.214 296.125C358.404 297.394 359.107 299.048 359.197 300.791L359.197 301.041C359.201 301.991 359.109 302.94 358.92 303.871C358.585 305.472 357.714 306.908 356.452 307.938C355.191 308.969 353.616 309.53 351.992 309.529L321.769 309.529C320.429 309.592 319.141 310.071 318.081 310.899C317.021 311.728 316.241 312.866 315.848 314.159C315.657 314.715 315.556 315.298 315.549 315.886L315.549 315.93C315.556 315.981 315.556 316.033 315.549 316.084L315.549 346.251C315.544 347.886 316.1 349.473 317.123 350.743C318.147 352.012 319.574 352.887 321.164 353.217C322.087 353.415 323.028 353.516 323.972 353.518L324.22 353.518C325.951 353.426 327.593 352.714 328.851 351.512C330.515 350.011 332.518 348.941 334.685 348.396C335.786 348.127 336.915 347.991 338.047 347.992C339.97 347.977 341.875 348.365 343.64 349.132C345.406 349.899 346.994 351.027 348.303 352.446C349.612 353.865 350.614 355.542 351.245 357.372C351.876 359.202 352.122 361.145 351.968 363.076C351.813 365.007 351.262 366.884 350.348 368.589C349.435 370.293 348.179 371.788 346.661 372.977C345.143 374.166 343.397 375.024 341.532 375.496C339.667 375.968 337.726 376.044 335.83 375.719C335.451 375.66 335.101 375.579 334.707 375.484C332.543 374.938 330.542 373.874 328.873 372.382C327.624 371.188 325.991 370.484 324.271 370.398L324.008 370.398C323.066 370.397 322.125 370.491 321.201 370.678C319.612 371.015 318.186 371.893 317.164 373.164C316.141 374.435 315.584 376.022 315.585 377.659L315.585 407.789C315.593 407.835 315.593 407.882 315.585 407.928C315.585 407.928 315.585 407.98 315.585 407.994C315.602 408.589 315.703 409.178 315.884 409.743C316.279 411.053 317.073 412.203 318.155 413.031C319.237 413.858 320.55 414.32 321.908 414.351C321.966 414.358 322.025 414.358 322.083 414.351L351.992 414.351C353.615 414.349 355.189 414.91 356.45 415.939C357.712 416.968 358.584 418.402 358.92 420.002C359.108 420.936 359.201 421.886 359.197 422.839L359.197 423.096C359.107 424.839 358.404 426.494 357.214 427.762C355.717 429.435 354.655 431.454 354.121 433.641C353.579 435.819 353.567 438.095 354.084 440.279C354.601 442.462 355.633 444.487 357.092 446.183C358.551 447.88 360.394 449.196 362.466 450.022C364.537 450.847 366.776 451.157 368.992 450.925C370.865 450.711 372.676 450.118 374.316 449.181C375.955 448.243 377.39 446.982 378.534 445.472C379.678 443.962 380.507 442.234 380.971 440.393C381.436 438.552 381.526 436.635 381.237 434.758C381.171 434.384 381.098 434.023 381.003 433.634C380.462 431.453 379.406 429.436 377.926 427.755C376.73 426.493 376.026 424.839 375.942 423.096L375.942 422.831C375.94 421.879 376.036 420.928 376.226 419.995C376.561 418.394 377.433 416.959 378.695 415.93C379.957 414.901 381.531 414.34 383.155 414.344L413.056 414.344C413.148 414.351 413.241 414.351 413.333 414.344C414.975 414.27 416.53 413.575 417.684 412.396C418.839 411.217 419.51 409.643 419.561 407.987C419.554 407.919 419.554 407.85 419.561 407.781L419.561 377.652C419.565 376.016 419.009 374.429 417.987 373.158C416.966 371.886 415.541 371.008 413.953 370.67C413.026 370.483 412.083 370.39 411.138 370.391L410.875 370.391C409.156 370.478 407.523 371.181 406.274 372.375C404.607 373.869 402.604 374.934 400.439 375.476C400.067 375.572 399.71 375.653 399.323 375.711C397.293 376.049 395.213 375.927 393.235 375.354C391.257 374.78 389.431 373.77 387.889 372.396C386.347 371.023 385.128 369.321 384.321 367.413C383.513 365.506 383.138 363.441 383.221 361.369C383.305 359.297 383.845 357.269 384.804 355.434C385.762 353.599 387.114 352.002 388.761 350.759C390.409 349.516 392.31 348.658 394.328 348.248C396.345 347.838 398.428 347.886 400.425 348.389C402.593 348.931 404.597 350.001 406.259 351.505C407.517 352.707 409.159 353.418 410.89 353.511L411.138 353.511C412.084 353.509 413.028 353.408 413.953 353.21C415.542 352.879 416.969 352.005 417.991 350.735C419.013 349.465 419.568 347.878 419.561 346.243L419.561 316.069C419.554 316.003 419.554 315.937 419.561 315.871C419.552 315.284 419.454 314.701 419.27 314.144C418.883 312.851 418.106 311.71 417.048 310.881C415.99 310.052 414.702 309.574 413.362 309.514L383.162 309.514C381.538 309.517 379.962 308.956 378.7 307.925C377.438 306.895 376.567 305.458 376.234 303.856C376.043 302.925 375.947 301.977 375.949 301.027L375.949 300.762C376.037 299.028 376.738 297.383 377.926 296.125C379.406 294.444 380.462 292.427 381.003 290.246C381.098 289.871 381.171 289.511 381.237 289.114C381.553 287.209 381.473 285.257 381.002 283.384C380.531 281.511 379.68 279.757 378.501 278.233C377.323 276.708 375.844 275.447 374.156 274.528C372.469 273.61 370.611 273.054 368.7 272.897C366.789 272.739 364.866 272.983 363.053 273.612C361.241 274.242 359.577 275.244 358.168 276.555C356.76 277.866 355.636 279.457 354.869 281.228C354.102 282.999 353.709 284.911 353.713 286.844L353.713 286.858Z" fill="#01B8C6" stroke="#01858E" stroke-width="2" stroke-miterlimit="10"/>
</svg>
